<?xml version="1.0" standalone="no"?>
<!DOCTYPE svg PUBLIC "-//W3C//DTD SVG 1.1//EN" "http://www.w3.org/Graphics/SVG/1.1/DTD/svg11.dtd" >
<svg xmlns="http://www.w3.org/2000/svg">
<defs>
<font id="Candela-Bold" horiz-adv-x="1136" >
<font-face  font-family="Candela Bold" font-weight="400" font-stretch="normal" units-per-em="2048" panose-1="2 0 0 0 0 0 0 0 0 0" ascent="1536" descent="-512" x-height="999" cap-height="1470" bbox="-242 -553 2128 2052" underline-thickness="102" underline-position="-102" unicode-range="U+0020-U+2122"/>
<missing-glyph horiz-adv-x="475" />
<glyph glyph-name=".notdef" horiz-adv-x="475" />
<glyph glyph-name=".null" horiz-adv-x="0" />
<glyph glyph-name="nonmarkingreturn" horiz-adv-x="682" />
<glyph glyph-name="space" unicode=" "  horiz-adv-x="475" />
<glyph glyph-bame="tab" unicode="&#x09;" horiz-adv-x="475" />
<glyph glyph-bame="uni00A0" unicode="&#xa0;" horiz-adv-x="475" />
<glyph glyph-name="exclam" unicode="!" horiz-adv-x="657" d="M406 109v-46q0 -35 -26 -59t-61 -24h-45q-35 0 -59.5 24.5t-24.5 58.5v46q0 35 25 59.5t59 24.5h45q35 0 61 -24.5t26 -59.5zM201 334l-4 1067q0 29 30.5 44t73.5 15q37 0 68.5 -14t31.5 -37l5 -1071q0 -16 -42 -33.5t-81 -17.5q-76 0 -82 47z" />
<glyph glyph-name="quotedbl" unicode="&#x22;" horiz-adv-x="604" d="M92 1026l-12 469q12 45 78 45q39 0 80 -18.5t41 -32.5q0 -31 -3.5 -97.5t-5.5 -101.5t-5 -109.5t-5 -111.5q-6 -86 -86 -86q-29 0 -54.5 14.5t-27.5 28.5zM328 1026l-13 469q12 45 78 45q39 0 80 -18.5t41 -32.5q0 -31 -3 -97.5t-5 -101.5t-5 -109.5t-5 -111.5 q-6 -86 -86 -86q-29 0 -54.5 14.5t-27.5 28.5z" />
<glyph glyph-name="numbersign" unicode="#" horiz-adv-x="1611" d="M342 434l-188 2q-27 0 -42.5 29t-15.5 70q0 39 14.5 70.5t36.5 31.5l246 -2q4 20 6 29q8 35 24.5 91t20.5 74h-84q-16 0 -47.5 1t-46.5 1q-27 0 -42 29t-15 70q0 39 14.5 70.5t36.5 31.5l236 -2l102 397q8 29 68 29q47 0 86 -19.5t39 -58.5l-93 -350h285l51 195l53 204 q8 29 68 29q47 0 86 -19.5t39 -58.5l-92 -354h112q18 0 61.5 -1t65.5 -1q18 2 36 -35t18 -78q0 -78 -49 -84h-295q-6 -20 -14.5 -57t-10.5 -43q-16 -57 -25 -96h107q18 0 59 -1t64 -1q18 -2 34.5 -38t16.5 -75q0 -78 -49 -84h-283l-110 -428q-12 -33 -64 -33q-47 0 -89 25.5 t-42 54.5l98 383h-282q-8 -35 -26.5 -104.5t-26.5 -104.5l-58 -221q-12 -33 -63 -33q-47 0 -89 25.5t-42 54.5zM649 827l-51 -194h283q4 20 6 29q8 35 24.5 91t20.5 74h-283z" />
<glyph glyph-name="dollar" unicode="$" horiz-adv-x="1099" d="M602 -10l-10 -140q-2 -49 -66 -49q-37 0 -68.5 18.5t-31.5 45.5l8 121q-211 14 -315 120q-16 10 -17 31q0 33 42 83t73 50q6 0 31 -12q86 -68 196 -82q4 76 17 223q4 39 8 113l6 113q-184 10 -272 90t-88 254q0 193 98 313.5t311 122.5q0 12 4 45q0 8 2 26.5t2 28.5 q2 12 26 24.5t52 12.5q80 0 86 -55l-8 -90q80 -14 157 -43t77 -62q0 -31 -32 -86t-54 -55q-104 47 -156 55q-2 -31 -7 -97.5t-7 -100.5l-15 -203q158 -23 250 -123t92 -254q0 -190 -108.5 -305t-282.5 -133zM803 426q0 66 -43 117t-123 71q-2 -33 -4 -69.5t-4 -79.5t-4 -68 l-13 -215q88 20 139.5 82t51.5 162zM334 965q0 -86 41 -118t110 -36q8 143 15 203q2 35 7 102.5t7 102.5q-90 -12 -135 -81t-45 -173z" />
<glyph glyph-name="percent" unicode="%" horiz-adv-x="1531" d="M1210 1358l-735 -1354q-14 -25 -45 -24q-39 0 -88 34.5t-49 61.5q0 20 10 22l367 672l374 686q6 2 23 2q39 0 92 -27.5t53 -66.5l-1 -2q-1 -2 -1 -4zM1008 323.5q0 -61.5 39.5 -107.5t95 -46t96.5 46t41 107.5t-41 107.5t-96.5 46t-95 -46t-39.5 -107.5zM823 330 q0 141 93.5 232t228.5 91t227 -91t92 -232q0 -143 -93 -242.5t-226 -99.5q-135 0 -228.5 99.5t-93.5 242.5zM262 1124.5q0 -61.5 40 -107.5t95.5 -46t96.5 46t41 107.5t-41 107.5t-96.5 46t-95.5 -46t-40 -107.5zM78 1130q0 141 93 232.5t228.5 91.5t227.5 -91t92 -233 q0 -143 -93.5 -242.5t-226.5 -99.5q-135 0 -228 99.5t-93 242.5z" />
<glyph glyph-name="ampersand" unicode="&#x26;" horiz-adv-x="1290" d="M1178 432q-20 -57 -95 -143l-22 -23q176 -164 176 -180q0 -23 -59.5 -76t-79.5 -53v20q-23 0 -33 11q-14 14 -31 26q-2 2 -44 37l-77 66q-184 -156 -419 -156q-174 0 -287 106.5t-113 315.5q0 240 244 408q-59 86 -86 129t-50.5 102t-23.5 113q0 57 15.5 109t52.5 104.5 t114.5 83t188.5 30.5q25 0 46 -1t59 -8t70 -19.5t67.5 -38t59 -60.5t40 -88t16.5 -121q0 -135 -67.5 -218t-225.5 -169q6 -6 8.5 -10t6.5 -8q166 -201 297 -332q14 18 22 33q2 2 41 55l53 76q33 0 84.5 -43t51.5 -66v-12zM520 551q-29 33 -39 47q-2 2 -14 17.5t-21 23.5 q-150 -104 -149 -262q0 -113 61.5 -170t151.5 -57q145 0 270 102q-92 92 -260 299zM711 1124q0 92 -47.5 132t-116.5 40q-80 0 -125 -34.5t-45 -131.5q0 -80 133 -260q117 68 159 122t42 132z" />
<glyph glyph-name="quotesingle" unicode="'" horiz-adv-x="391" d="M102 1026l-12 469q12 45 78 45q39 0 80 -18.5t41 -32.5q0 -31 -3 -97.5t-5 -101.5t-5.5 -109.5t-5.5 -111.5q-6 -86 -86 -86q-29 0 -54.5 14.5t-27.5 28.5z" />
<glyph glyph-name="parenleft" unicode="(" horiz-adv-x="630" d="M45 778q0 254 86 474.5t229 441.5q12 16 35 16q31 0 74 -39t43 -59q0 -12 -6 -19q-111 -176 -192 -405.5t-81 -413.5q0 -240 100.5 -530.5t223.5 -470.5v2q6 -6 6 -25q0 -25 -44 -60.5t-75 -35.5q-29 0 -34 18q-141 201 -253 489.5t-112 616.5z" />
<glyph glyph-name="parenright" unicode=")" horiz-adv-x="657" d="M526 778q0 -326 -112.5 -618.5t-255.5 -495.5q-10 -10 -29 -10q-31 0 -75 36t-44 60q0 16 10 23l-4 -2q123 182 222.5 471.5t99.5 531.5q0 190 -81 412.5t-194 398.5v-2q-6 6 -6 23q0 20 43 59t74 39q23 0 35 -16q145 -223 231 -439.5t86 -470.5z" />
<glyph glyph-name="asterisk" unicode="*" horiz-adv-x="937" d="M569 1397l-24 -201q45 33 76 53q66 45 94 68h-2q6 6 24 6q29 0 68 -48t39 -85q0 -31 -25 -43l-114 -64l-44 -25.5t-53 -29.5l99 -70l112 -77q12 -25 12 -37q0 -39 -49 -85t-75 -44l-160 159q25 -190 24 -198q2 -16 -40 -35.5t-82 -19.5q-72 0 -82 51l30 219l-80 -78h2 l-102 -100q-25 0 -73 46t-48 85q0 25 10 37l226 151q-8 4 -37 19.5t-43 21.5l-141 72v-2q-27 12 -27 47q0 37 39 85t67 48q16 0 23 -10l-2 4q16 -12 34.5 -24.5l39 -26t30.5 -21.5l84 -59q-12 53 -16 90q-2 18 -8 57t-10 56q0 27 31.5 45t70.5 18q43 0 72.5 -15t29.5 -40z " />
<glyph glyph-name="plus" unicode="+" horiz-adv-x="974" d="M354 795v260q0 29 31 44t74 15q37 0 68.5 -14.5t31.5 -36.5v-268h139q27 0 77 1t75 1q14 0 32.5 -42t18.5 -81q0 -76 -47 -82l-295 -2v-139q0 -25 1 -74t1 -74q0 -16 -42 -33.5t-81 -17.5q-76 0 -82 47l-2 291h-256q-29 0 -44 30.5t-15 73.5q0 39 14.5 70t36.5 31h264z " />
<glyph glyph-name="comma" unicode="," horiz-adv-x="458" d="M420 61l-217 -331q-6 -6 -45 -6t-70 19t-31 60q0 23 17 52q6 14 25.5 48t25.5 48l6 12t5 11.5t5 13.5q25 43 60 112h-2l19 37t18 33q10 2 28 2q47 0 102.5 -28.5t55.5 -71.5l-1 -3q-1 -4 -1 -8z" />
<glyph glyph-name="hyphen" unicode="-" horiz-adv-x="819" d="M659 592l-534 -2q-29 0 -44 30.5t-15 73.5q0 39 14 70t37 31l538 2q14 0 33 -42t19 -81q-1 -76 -48 -82z" />
<glyph glyph-name="period" unicode="." horiz-adv-x="581" d="M162 109v16q0 57 39 96t96 39h16q55 0 93 -39t38 -96v-16q0 -57 -37.5 -95.5t-93.5 -38.5h-16q-57 0 -96 38.5t-39 95.5z" />
<glyph glyph-name="slash" unicode="/" horiz-adv-x="804" d="M756 1364l-543 -1346q-25 -43 -59 -43q-41 0 -89.5 30t-48.5 56l2 15l537 1329q29 53 61 53q51 0 95.5 -24.5t44.5 -69.5z" />
<glyph glyph-name="zero" unicode="0" horiz-adv-x="1155" d="M289 715q0 -530 276 -531q74 0 128.5 28t87 73t52 115.5t26.5 144t7 170.5q0 240 -75.5 393.5t-225.5 153.5q-125 0 -200.5 -147.5t-75.5 -399.5zM86 715q0 383 130 566t362 183q227 0 366 -214t139 -535q0 -158 -26.5 -285t-82.5 -230.5t-156.5 -160.5t-239.5 -57 q-115 0 -202 38.5t-141.5 103t-88 161t-47 200t-13.5 230.5z" />
<glyph glyph-name="one" unicode="1" horiz-adv-x="743" d="M594 1411v-1401q-63 -16 -114.5 -16t-86.5 16v1145l-112 -82l-129 -98q-23 0 -68 41t-45 71q0 23 16 33q381 324 396 324q41 8 71 8q72 0 72 -41z" />
<glyph glyph-name="two" unicode="2" horiz-adv-x="1058" d="M733 1079q0 84 -62.5 136.5t-162.5 52.5q-84 0 -160 -37t-109 -74l-34 -37q-18 0 -69.5 43t-51.5 76q0 25 16 37q178 182 394 182q41 0 66.5 -1t77.5 -8t89 -20.5t82 -41t72.5 -65.5t47 -99.5t19.5 -137t-21.5 -141t-47 -109.5t-82 -95.5t-89 -76t-102.5 -73.5 q-141 -96 -222 -190.5t-87 -227.5q37 -2 229 -2l402 6q39 -23 39 -92q0 -35 -10.5 -66.5t-24.5 -35.5h-742q-43 0 -64.5 28.5t-26.5 62t-5 95.5q0 104 29 187t92.5 151.5t109.5 104.5t134 98q68 45 105.5 73.5t82.5 72.5t65.5 95t20.5 111v18z" />
<glyph glyph-name="three" unicode="3" horiz-adv-x="1052" d="M717 1065q0 193 -221 192q-139 0 -263 -94q-16 -12 -40 -28q-20 0 -66.5 47t-46.5 78q0 41 152.5 113.5t263.5 72.5q47 0 90 -5t107.5 -27.5t110.5 -62.5t80 -118t34 -182q2 -12 3 -32t-3.5 -73t-15.5 -96t-41 -85t-75 -58q170 -80 170 -336q0 -162 -131 -282t-327 -120 q-219 0 -457 172l2 23q0 39 45 94t78 55q6 0 18.5 -6t16.5 -12q123 -131 295 -131q123 0 191.5 61.5t68.5 173.5q0 211 -322 211q-52 0 -110 -6q-47 10 -48 72q0 78 33 104q16 16 61.5 20.5t192.5 4.5q68 0 111 70.5t43 189.5z" />
<glyph glyph-name="four" unicode="4" horiz-adv-x="1077" d="M90 348l-16 8q-16 35 -17 80q0 57 25 94l582 850q41 8 77 9q88 0 88 -56v-782h156q4 0 11.5 -25.5t14.5 -63.5t7 -65q0 -35 -16.5 -42t-94.5 -7h-78v-362q-63 -16 -114 -16.5t-86 16.5v362h-539zM629 1008l-293 -469l141 6q25 0 73 2t79 4v457z" />
<glyph glyph-name="five" unicode="5" horiz-adv-x="1193" d="M453 -20q-166 4 -396 131q0 37 46.5 103.5t64.5 66.5h18q18 0 66 -29q104 -70 237 -70q35 0 73 4t98.5 21.5t105.5 47.5t79 90.5t34 139.5q0 160 -93.5 240t-240.5 80q-135 0 -297 -70q-12 -8 -29 -8q-78 0 -78 188q0 119 23.5 279t42.5 215q18 51 377 51l460 -12 q29 -55 29 -98q0 -55 -20 -105l-643 -14q-47 -78 -48 -205q0 -14 5 -59q88 16 178 16q92 0 181 -24.5t176 -78t140.5 -155.5t53.5 -240q0 -129 -43 -227t-102.5 -150.5t-142.5 -84t-145.5 -40t-125.5 -8.5z" />
<glyph glyph-name="six" unicode="6" horiz-adv-x="1054" d="M834 1196q-94 70 -197 70q-66 0 -104.5 -8.5t-89 -48.5t-97.5 -119q-33 -55 -48 -117t-14 -94l1 -33q111 106 276 106q164 0 297 -133t133 -389q0 -209 -130 -328.5t-310 -119.5q-178 0 -310 116.5t-147 327.5l-2 25q-10 113 -10 196q0 379 138 592t378 213 q150 0 348 -102q4 -4 4 -33q0 -35 -46.5 -78t-69.5 -43zM295 629q-8 -74 -8 -107q0 -158 66.5 -261t207.5 -103q119 0 180.5 79.5t61.5 194.5q0 133 -75 234.5t-198 101.5q-86 0 -156.5 -43t-78.5 -96z" />
<glyph glyph-name="seven" unicode="7" horiz-adv-x="1062" d="M451 14q-10 -18 -51.5 -30.5t-86.5 -12.5q-90 0 -90 45q0 16 8 21q401 743 533 1231h-594q-12 0 -41 50t-29 87q0 41 37 53h768q41 -12 64.5 -46t23.5 -66q0 -16 -2 -23v2q-20 -123 -83.5 -303t-139.5 -350l-148.5 -321.5l-120.5 -244.5z" />
<glyph glyph-name="eight" unicode="8" horiz-adv-x="1130" d="M74 412q0 170 47 274.5t166 155.5q-100 80 -101 254q0 39 14.5 89t52.5 115.5t125 109.5t210 44q184 0 291.5 -104.5t107.5 -266.5q0 -158 -102 -241q74 -55 123 -169t49 -253q0 -209 -148.5 -328t-347.5 -119q-201 0 -344 116t-143 323zM303 385q0 -84 70.5 -151.5 t183.5 -67.5q143 0 217 82t74 196q0 125 -76 213t-194 95q-90 -14 -148.5 -49t-84.5 -90.5t-34 -104.5t-8 -123zM795 1143q-16 57 -78 93t-133 36q-109 0 -158 -64.5t-49 -113.5q0 -82 60.5 -126t144.5 -44q86 0 150.5 49t64.5 135q0 21 -2 35z" />
<glyph glyph-name="nine" unicode="9" horiz-adv-x="1030" d="M205 242l8 -4q123 -68 221 -68q61 0 116.5 43t91.5 105.5t62.5 125t37.5 105.5l12 43q-119 -104 -273 -105q-74 0 -146.5 31t-136 90.5t-103.5 162.5t-40 237q0 209 128 324.5t306.5 115.5t312.5 -114.5t148 -319.5q6 -95 6 -185q0 -418 -136 -630.5t-386 -212.5 q-104 0 -201.5 36.5t-121.5 61.5h2q-18 14 -19 35q0 37 46.5 80t64.5 43zM733 1040q0 86 -71.5 164t-169.5 78q-115 0 -174.5 -82t-59.5 -196q0 -129 64.5 -231.5t162.5 -102.5q14 0 25 2q63 10 108.5 37.5t67 57.5t32.5 84t13 88.5t2 100.5z" />
<glyph glyph-name="colon" unicode=":" horiz-adv-x="700" d="M205 102v15q0 53 37 91t90 38h16q51 0 88 -38t37 -91v-15q0 -55 -36 -91t-89 -36h-16q-53 0 -90 36t-37 91zM205 877v16q0 53 37 90t90 37h16q53 0 89 -37t36 -90v-16q0 -55 -36 -91t-89 -36h-16q-53 0 -90 36t-37 91z" />
<glyph glyph-name="semicolon" unicode=";" horiz-adv-x="528" d="M137 877v16q0 53 37 90t90 37h17q53 0 89 -37t36 -90v-16q0 -55 -36 -91t-89 -36h-17q-53 0 -90 36t-37 91zM420 61l-217 -331q-6 -6 -45 -6t-70 19t-31 60q0 23 17 52q6 14 25.5 48t25.5 48l6 12t5 11.5t5 13.5q25 43 60 112h-2l19 37t18 33q10 2 28 2q47 0 102.5 -28.5 t55.5 -71.5l-1 -3q-1 -4 -1 -8z" />
<glyph glyph-name="less" unicode="&#x3c;" horiz-adv-x="598" d="M66 475h2q-8 10 -9 39q0 20 4 33l295 387q16 23 48 22q39 0 78.5 -35.5t35.5 -56.5l-280 -350q16 -18 45.5 -56t46.5 -57l182 -223q4 -16 -37 -57t-78 -41q-29 0 -45 22z" />
<glyph glyph-name="equal" unicode="=" horiz-adv-x="1382" d="M1059 817l-756 -2q-29 0 -44 31t-15 74q0 39 14 69.5t37 30.5l760 2q14 0 32.5 -42t18.5 -81q0 -76 -47 -82zM1059 346l-756 -2q-29 0 -44 31t-15 74q0 39 14 69.5t37 30.5l760 2q14 0 32.5 -42t18.5 -81q0 -76 -47 -82z" />
<glyph glyph-name="greater" unicode="&#x3e;" horiz-adv-x="612" d="M516 465l-283 -363q-16 -23 -47 -22q-37 0 -76.5 41t-35.5 57l276 336l-139 170q-94 115 -143 180q-4 18 35.5 55t76.5 37q33 0 49 -22l295 -387q2 -6 2 -33q0 -29 -10 -49z" />
<glyph glyph-name="question" unicode="?" horiz-adv-x="909" d="M406 377l-3 -6q-23 -35 -86 -35q-104 0 -104 59v13q0 2 1 8t1 10q2 12 2 37q0 10 -4 39q-2 14 -2 43q0 70 34 125t67.5 80.5t103.5 68.5q68 39 101.5 64.5t67 80t33.5 121.5q0 197 -188 197q-168 0 -266 -119q-23 0 -69 45t-46 80q0 49 126 109.5t245 60.5 q170 0 280.5 -92t110.5 -295q0 -66 -15.5 -119t-33 -84.5t-55 -62.5t-59 -44t-68.5 -38q-59 -31 -88 -51.5t-57.5 -69.5t-28.5 -119q0 -6 4 -30.5t4 -40.5q0 -21 -8 -35zM203 84v12q0 47 31.5 78t76.5 31h13q45 0 75.5 -32t30.5 -77v-12q0 -47 -30.5 -78t-75.5 -31h-13 q-47 0 -77.5 31t-30.5 78z" />
<glyph glyph-name="at" unicode="@" horiz-adv-x="2273" d="M1726 -150l52 -202q-117 -76 -297.5 -127t-300.5 -51q-428 0 -723 289.5t-295 701.5q0 291 143.5 523.5t381 356t521.5 123.5q248 0 460 -107.5t336 -292.5t124 -400q0 -158 -64.5 -305.5t-162 -247t-209 -160t-205.5 -60.5q-100 0 -166 70q-27 -6 -61 -18 q-80 -23 -160 -23q-186 0 -290.5 97.5t-104.5 265.5q0 61 16 139q55 250 210.5 400.5t385.5 150.5q59 0 203.5 -17.5t144.5 -31.5q0 -8 -39 -193q-127 -592 -127 -637q0 -8 25 -8q45 0 111.5 44t132 116.5t111.5 185.5t46 232q0 248 -210 420.5t-507 172.5q-365 0 -602 -232 t-237 -564q0 -328 236.5 -556.5t574.5 -228.5q117 0 278.5 49t267.5 125zM1100 111q41 0 95 6t87 12l33 6l129 649q-37 8 -90 9q-70 0 -144.5 -33t-153.5 -123t-116 -223q-16 -76 -16 -125q0 -178 176 -178z" />
<glyph glyph-name="A" unicode="A" horiz-adv-x="1370" d="M61 57l570 1377q18 33 108 32q74 0 88 -30l471 -1383h-2q6 -12 7 -18q0 -55 -89 -55q-100 0 -120 47l-127 405h-529l-78 -190q-66 -156 -75 -183q-47 -82 -107 -82q-45 0 -81 26.5t-36 53.5zM897 627l-186 479l-88 -213l-109 -266h383z" />
<glyph glyph-name="B" unicode="B" horiz-adv-x="1052" d="M874 1133q0 -80 -34.5 -173.5t-98.5 -140.5q55 -27 106.5 -65.5t102.5 -127.5t51 -200q0 -223 -132 -347t-357 -124q-111 0 -212 19.5t-147 38.5l-47 20v1378q8 8 29 19.5t117 31t227 19.5q109 0 191 -35t124 -90.5t61 -111.5t19 -111zM309 711l-2 -549q82 -37 219 -37 q117 0 198 73.5t81 221.5q0 295 -385 295q-61 0 -86 -2q-6 0 -12.5 -1t-8.5 -1h-4zM690 1126q0 100 -67.5 150.5t-161.5 50.5l-154 -18v-430h37q39 0 78 4t90 19.5t88 40t63.5 72.5t26.5 111z" />
<glyph glyph-name="C" unicode="C" horiz-adv-x="1185" d="M1030 1161q-16 0 -24 15l2 -2q-51 57 -112.5 81.5t-158.5 24.5q-180 0 -312 -169t-132 -392t132 -393t312 -170q160 0 275 108h-2q6 6 22 6q31 0 60.5 -46t29.5 -87q0 -72 -126 -127t-259 -55q-266 0 -455.5 227.5t-189.5 536.5t189.5 534.5t455.5 225.5q133 0 252 -64.5 t119 -116.5q0 -27 -27.5 -82t-50.5 -55z" />
<glyph glyph-name="D" unicode="D" horiz-adv-x="1290" d="M131 -20l-2 1452q0 18 123 32.5t180 14.5q772 0 772 -762q0 -387 -178 -574.5t-600 -187.5h-66q-8 0 -24.5 -1t-26.5 -1q-127 0 -178 27zM330 1288l2 -1147q31 -2 86 -2q586 0 586 578q0 573 -568 573q-88 0 -106 -2z" />
<glyph glyph-name="E" unicode="E" horiz-adv-x="1073" d="M313 866h539q66 0 66 -90q0 -41 -17.5 -75.5t-42.5 -34.5l-545 -2v-482q0 -12 271 -12l374 10q55 0 56 -90q0 -45 -15.5 -76.5t-40.5 -31.5q-55 0 -102 -2q-8 0 -28.5 -1.5t-32.5 -1.5q-139 -4 -254 -4q-430 0 -430 74l-2 1329q0 84 452 84q113 0 264 -4q51 -2 133 -2 q35 -16 35 -113q0 -66 -32 -65q-203 2 -390 2q-258 0 -258 -12v-400z" />
<glyph glyph-name="F" unicode="F" horiz-adv-x="1021" d="M330 866l471 2q25 0 39 -26.5t14 -65.5t-14.5 -73.5t-32.5 -36.5h-475v-678q-37 -12 -90 -13q-41 0 -90 7q-4 0 -10.5 1t-8.5 1l-6 1394q6 76 541 76q207 0 317 -8q10 -53 10 -84q0 -43 -18 -98q-184 10 -348 10q-297 0 -297 -31q-8 -27 -8 -129z" />
<glyph glyph-name="G" unicode="G" horiz-adv-x="1325" d="M1245 690q0 -344 -151.5 -539.5t-405.5 -195.5q-248 0 -425 227.5t-177 536.5t177 534.5t425 225.5q231 -6 375 -150q2 -2 4 -9t4 -9v2q8 -16 8 -23q0 -33 -40 -83t-66 -50q-16 0 -23 6q-117 117 -262 117q-164 0 -282.5 -169t-118.5 -392t118.5 -393t282.5 -170 q143 0 244.5 131t120.5 315q-14 18 -99 19q-82 0 -225 -21h2l-18 -2q-23 0 -35 29.5t-12 72.5q0 39 12 68t31 29q23 0 34 2q25 4 43 4q4 0 10.5 1t8.5 1q98 8 172 8q268 0 268 -123z" />
<glyph glyph-name="H" unicode="H" horiz-adv-x="1261" d="M1143 1409l4 -1389q0 -16 -44 -33.5t-85 -17.5q-76 0 -76 51v627h-627v-309q0 -53 1 -159.5t1 -158.5q0 -16 -43 -33.5t-84 -17.5q-76 0 -75 51l-2 1389q0 14 43 31.5t84 17.5q76 0 75 -49v-559h627v559q0 14 43 31.5t82 17.5q76 0 76 -49z" />
<glyph glyph-name="I" unicode="I" horiz-adv-x="444" d="M330 1423l2 -1392q0 -27 -31 -43.5t-70 -16.5q-41 0 -69.5 14.5t-28.5 37.5l-2 1396q0 14 40 32.5t79 18.5q74 0 80 -47z" />
<glyph glyph-name="J" unicode="J" horiz-adv-x="673" d="M37 -14q-27 47 -27 84q0 29 29 84q66 0 119 24.5t84.5 57t54 86t33 88t15.5 88t5 63.5v33l-4 819q0 14 45 32.5t86 18.5q76 0 76 -51v-819q0 -160 -36 -278.5t-85 -180t-117.5 -99.5t-116.5 -47t-98 -9z" />
<glyph glyph-name="K" unicode="K" horiz-adv-x="1241" d="M334 623v-635q-8 -14 -102.5 -11t-98.5 27l-2 1407q0 14 43 31.5t84 17.5q76 0 76 -49l4 -450l291 239l315 258q117 -76 139 -143l-620 -520l346 -330l354 -338q10 -10 11 -23q0 -27 -60.5 -77t-87.5 -47z" />
<glyph glyph-name="L" unicode="L" horiz-adv-x="1095" d="M311 1409v-1262q55 10 195 11q160 0 309.5 3t147.5 7q41 0 60 -29.5t19 -68.5q0 -61 -26 -76q-111 -18 -481 -19q-424 0 -424 52v1396q53 37 122 37q78 0 78 -51z" />
<glyph glyph-name="M" unicode="M" horiz-adv-x="1607" d="M309 965v-951q0 -18 -35.5 -31.5t-76.5 -13.5q-90 0 -91 43l-2 1403q0 18 39 31.5t84 13.5q70 0 78 -30l-2 2l242 -469l235 -453l254 448l262 465l-2 -2q2 14 42 27.5t79 13.5q82 0 82 -49l2 -1407q-4 -14 -39 -25.5t-74 -11.5q-92 0 -92 43v1037l-219 -381l-237 -408 q-27 -31 -78 -31q-43 0 -53 11z" />
<glyph glyph-name="N" unicode="N" horiz-adv-x="1361" d="M1253 1401l2 -1352q0 -39 -34.5 -57.5t-81.5 -18.5q-59 0 -78 23l-754 1071v-1047q0 -18 -34.5 -32.5t-75.5 -14.5q-94 0 -95 58v1353q0 33 32 52.5t77 19.5q70 0 98 -41l742 -1050v1038q0 16 41 35.5t79 19.5q82 0 82 -57z" />
<glyph glyph-name="O" unicode="O" horiz-adv-x="1298" d="M68 721q0 309 174 533.5t417 224.5q180 0 316.5 -104.5t206 -275.5t69.5 -378q0 -311 -173 -538.5t-419 -227.5q-244 0 -417.5 227.5t-173.5 538.5zM270 756v-4q-2 -18 -2 -52q0 -213 123 -379.5t279 -166.5q158 0 269.5 178t111.5 416q0 213 -111 371.5t-266 158.5 q-145 0 -262 -156.5t-142 -365.5z" />
<glyph glyph-name="P" unicode="P" horiz-adv-x="1034" d="M299 1272l8 -604q66 -16 131 -17q59 0 109.5 14.5t100.5 50.5t79 110.5t29 181.5q0 150 -71 222.5t-185 72.5q-45 0 -95.5 -8.5t-77.5 -15.5zM100 -10v1417q152 72 408 72q223 0 344 -123t121 -348q0 -246 -144.5 -400.5t-375.5 -154.5q-74 0 -148 14v-477 q-43 -14 -100 -15q-23 0 -49.5 4.5t-40.5 7.5z" />
<glyph glyph-name="Q" unicode="Q" horiz-adv-x="1306" d="M1249 713q0 -272 -139 -479t-340 -267q72 -135 242 -135q27 -51 26 -82q0 -63 -9 -76.5t-54 -13.5q-317 0 -424 299q-211 45 -353.5 262t-142.5 492q0 311 175.5 538.5t422.5 227.5q246 0 421 -227.5t175 -538.5zM258 750q-4 -45 -4 -66q0 -197 104.5 -352.5 t247.5 -179.5q111 6 196 63t129 130t72.5 162t36 146.5t7.5 96.5q0 213 -106.5 368.5t-264.5 155.5q-156 0 -277 -153.5t-141 -370.5z" />
<glyph glyph-name="R" unicode="R" horiz-adv-x="1175" d="M135 25v1374q213 80 467 80q223 0 357.5 -131t134.5 -338q0 -129 -45 -212t-142 -141q205 -102 205 -634q0 -16 -31.5 -33t-79.5 -17q-57 0 -81 45q0 14 -2 25q0 8 -7 59q-31 406 -213 471h-137q-10 0 -34.5 -1t-37.5 -1q-139 0 -161 2v-585q-59 -20 -109 -21 q-84 1 -84 58zM324 1260l4 -508q94 -6 204 -7q358 0 359 240q0 150 -80 230.5t-215 80.5q-49 0 -117.5 -9t-111.5 -18z" />
<glyph glyph-name="S" unicode="S" horiz-adv-x="1009" d="M520 1292q-119 -2 -173 -80.5t-54 -199.5q0 -199 246 -199q195 0 309.5 -103.5t114.5 -281.5q0 -211 -133.5 -342t-327.5 -131q-291 0 -414 123q-16 10 -16 31q0 33 42 83t72 50q4 0 33 -15q39 -27 66.5 -41t84 -27.5t132.5 -13.5q119 0 194.5 77t75.5 204 q0 199 -258 199q-430 0 -430 391q0 199 104.5 331t319.5 132q207 0 366 -82q16 -10 17 -31q0 -31 -33 -86t-55 -55q-107 67 -283 67z" />
<glyph glyph-name="T" unicode="T" horiz-adv-x="1206" d="M506 29l16 1226q-29 2 -127 2l-301 -4q-25 0 -42 40t-17 83q0 57 33 64q119 14 536 14q430 0 541 -14q18 -2 30.5 -29t12.5 -59q0 -98 -66 -99q-154 6 -278 7q-106 0 -121 -3q-2 -102 -4 -304.5t-4 -305.5q-4 -205 -8 -618q0 -51 -103 -52q-41 0 -69.5 13.5t-28.5 38.5z " />
<glyph glyph-name="U" unicode="U" horiz-adv-x="1417" d="M721 -45h-6q-258 2 -426 157.5t-168 409.5v889q0 14 43 31.5t84 17.5q76 0 76 -49v-899q0 -160 117.5 -259t279.5 -103q152 2 246 113.5t94 252.5l2 889q0 49 74 49q41 0 85 -17.5t44 -31.5v-881q0 -242 -151.5 -402.5t-393.5 -166.5z" />
<glyph glyph-name="V" unicode="V" horiz-adv-x="1400" d="M561 -14l-506 1376q0 16 52.5 58t91.5 42q33 0 55 -43l190 -518l215 -579l523 1112q12 27 45 26q37 0 90 -48t51 -66l-254 -539l-381 -811q-35 -20 -74 -21q-53 0 -81 9q-2 0 -8.5 1t-8.5 1z" />
<glyph glyph-name="W" unicode="W" horiz-adv-x="1699" d="M1053 29l-228 952l-303 -997q-49 -8 -98 -9q-47 0 -70 21l-16 33l-289 1339q-2 27 30 45.5t67.5 23.5t70.5 5q23 -2 85.5 -253t112.5 -501l50 -250l299 994q12 29 94 28q51 0 105 -33l215 -989l288 987q12 35 53.5 35t92.5 -34.5t51 -49.5l-389 -1390h-17q-4 0 -14 -1 l-20.5 -2t-22.5 -2t-21.5 -1t-18.5 -1.5t-13 -2.5l-4 -1q-53 0 -76 21z" />
<glyph glyph-name="X" unicode="X" horiz-adv-x="1300" d="M1024 -20l-381 581q-236 -307 -426 -588q-6 -6 -37 -6q-47 0 -93 35t-46 66q4 20 126 189l241 329l118 159l-403 555q-12 18 -12 37q0 37 42 74t80 37q29 0 48 -23l387 -534l442 559q10 10 39 10q39 0 82 -34.5t43 -71.5q0 -23 -14 -43l-476 -602l402 -621v2q8 -8 8 -31 q0 -29 -47 -56.5t-88 -27.5q-31 1 -35 5z" />
<glyph glyph-name="Y" unicode="Y" horiz-adv-x="1230" d="M461 -4v657l-209 342l-213 351q-6 16 50 64t93 48q23 0 39 -20l344 -578l236 281l248 293q16 16 34 16q35 0 83 -61.5t44 -79.5l-544 -645v-674q-72 -14 -119 -14t-86 20z" />
<glyph glyph-name="Z" unicode="Z" horiz-adv-x="1120" d="M971 172q45 0 45 -88q0 -39 -12.5 -69.5t-28.5 -32.5h-105q-33 0 -117.5 -1t-127.5 -1q-430 0 -494 10q-29 4 -49.5 36.5t-20.5 82.5q0 43 15 86q457 705 737 1067q-78 8 -180 8l-402 -10q-10 0 -20 1t-27.5 19t-17.5 53q0 47 17.5 78t30.5 38t19 7l9 -2q6 0 31.5 1 t41.5 1q70 2 291 2q201 0 400 -6q37 -4 57 -39t20 -76t-20 -65l-264 -377l-512 -731q27 -4 211 -4z" />
<glyph glyph-name="bracketleft" unicode="[" horiz-adv-x="706" d="M365 1407h-3l3 -1470q0 -68 42 -91.5t148 -23.5q37 0 37 -65.5t-18.5 -81t-73.5 -15.5q-53 0 -91 3t-89.5 17.5t-83 41t-55 79t-23.5 125.5v1528q4 66 29.5 114t58.5 71.5t83 37t87 16.5t88 3q53 0 70.5 -16.5t17.5 -82.5q0 -63 -37 -63q-106 0 -148 -26.5t-42 -100.5z " />
<glyph glyph-name="backslash" unicode="\" horiz-adv-x="804" d="M557 18l-543 1346q0 45 44 69.5t96 24.5q35 0 53 -39l545 -1343q0 -31 -45 -66t-91 -35q-34 0 -59 43z" />
<glyph glyph-name="bracketright" unicode="]" horiz-adv-x="643" d="M115 -178q106 0 148 23.5t42 91.5v1482q0 68 -42 91.5t-148 23.5q-37 0 -37 63q0 35 12 66t35 33q176 0 247 -29q131 -53 140 -213v-1528q0 -74 -23.5 -126t-55.5 -78.5t-84 -41t-89 -17.5t-92 -3t-72.5 15.5t-17.5 81t37 65.5z" />
<glyph glyph-name="asciicircum" unicode="^" horiz-adv-x="1054" d="M563 1491l369 -266q23 -16 22 -47q0 -37 -41 -77t-57 -36l-326 250l-182 -123l-188 -131q-18 -4 -55 36t-37 77q0 33 22 49l387 256q29 14 53 14q27 0 33 -2z" />
<glyph glyph-name="underscore" unicode="_" horiz-adv-x="1241" d="M1122 -342l-1013 -2q-29 0 -44.5 30.5t-15.5 73.5q0 39 14.5 70t36.5 31l1018 2q14 0 32.5 -42t18.5 -81q0 -76 -47 -82z" />
<glyph glyph-name="grave" unicode="`" horiz-adv-x="655" d="M455 1114l-344 141q-31 20 -31 54q0 37 46 87t60 44l301 -156q53 -29 54 -74q0 -37 -31.5 -66.5t-54.5 -29.5z" />
<glyph glyph-name="a" unicode="a" horiz-adv-x="899" d="M776 555q-2 -43 -10 -113q-12 -102 -12 -153q0 -176 137 -262q-98 -72 -172 -72q-78 0 -129 72q-154 -74 -258 -74q-113 0 -205 81t-92 255q0 145 130 234t298 89q68 0 127 -14v20q0 4 1 10.5t1 8.5q0 195 -107 199q-135 -4 -266 -58q-29 0 -51.5 49.5t-22.5 83.5 q0 47 100.5 78t194.5 31q63 0 103.5 -4t89.5 -24.5t77.5 -59.5t48 -113t19.5 -178q0 -57 -2 -86zM328 139q8 -2 24 -2q78 0 215 58q2 2 11 6q-2 2 -3 4q-2 14 -2 49q0 25 5 102v13q4 49 4 73q-41 6 -119 7q-223 0 -234 -160q5 -138 99 -150z" />
<glyph glyph-name="b" unicode="b" horiz-adv-x="1040" d="M303 711l-4 -480q76 -84 201 -84q104 0 181 88.5t77 245.5q0 336 -205 336q-133 0 -250 -106zM100 160l-2 1253q16 51 123 51q68 0 82 -45v-514q139 115 281 115q158 0 267.5 -130t109.5 -323q0 -299 -147.5 -455.5t-379.5 -156.5q-234 0 -334 205z" />
<glyph glyph-name="c" unicode="c" horiz-adv-x="917" d="M768 776l-16 2q-57 55 -222 56q-119 0 -189.5 -94.5t-70.5 -233.5q0 -143 71 -245.5t187 -102.5q74 0 120 16t106 66l14 2q27 0 58.5 -42t31.5 -81q0 -68 -114.5 -116t-208.5 -48q-205 0 -337 163t-132 394q0 225 131 366.5t340 141.5q102 0 175.5 -16.5t137.5 -71.5v-27 q0 -102 -82 -129z" />
<glyph glyph-name="d" unicode="d" horiz-adv-x="1013" d="M928 1401v-1352q-16 -10 -49 -25.5t-139.5 -42t-219.5 -26.5q-219 0 -343 130t-124 357q0 250 148.5 415t384.5 165q80 0 137 -12v397q20 45 127 45q35 0 54.5 -13.5t21.5 -25.5zM727 188v310q0 51 -1 152.5t-1 154.5h-6q-55 10 -103 10q-61 0 -114 -14.5t-109.5 -51 t-89.5 -115.5t-33 -192q0 -152 72 -222t184 -70q47 0 97.5 9t76.5 19z" />
<glyph glyph-name="e" unicode="e" horiz-adv-x="964" d="M866 514q-6 -72 -344 -72l-260 7q8 -156 90 -231t205 -75q92 0 211 43q1 0 5 1t5 1q31 0 55.5 -47t24.5 -86q0 -55 -113.5 -77.5t-238.5 -22.5q-242 0 -348.5 158.5t-106.5 410.5q0 229 106.5 363.5t311.5 134.5q227 0 315 -90t88 -289q0 -58 -6 -129zM473 852 q-104 0 -153.5 -67.5t-55.5 -166.5q4 0 19.5 -1t27.5 -1q55 -2 211 -2q152 0 152 -6q0 61 -2 90t-11.5 66t-31 51t-59.5 25.5t-97 11.5z" />
<glyph glyph-name="f" unicode="f" horiz-adv-x="786" d="M377 1171v-147h100h23q33 0 94 -4h14q8 -2 27 -2q4 0 14 -1t17 -1q16 -4 28.5 -29.5t12.5 -58.5q0 -90 -50 -92q-115 6 -202 6q-57 0 -78 -2v-809q0 -57 -94 -58q-41 0 -73 13.5t-34 29.5l2 813h-45q-72 0 -85 12.5t-13 78.5q0 92 37 92q20 -2 45 -2q49 0 59 2v88 q0 16 1 48t1 48q2 113 112.5 198t256.5 85q70 0 135.5 -20.5t65.5 -65.5q0 -39 -26 -84t-50 -43q-45 23 -113 22q-74 0 -128 -30t-54 -87z" />
<glyph glyph-name="g" unicode="g" horiz-adv-x="1046" d="M508 1020q123 0 225 -68q12 -2 37 -2q45 0 96.5 22.5t80.5 45.5l30 22q6 -68 6 -94q0 -156 -82 -215q10 -55 10 -119q0 -164 -117.5 -278.5t-285.5 -114.5q-63 0 -102 10l-11.5 -12t-12.5 -14t-7 -10l-13 -13q43 -14 195 -14q432 0 432 -350v-17q-8 -168 -155.5 -260 t-348.5 -92q-195 0 -350 89t-155 235q0 88 53 170t121 114q-31 31 -70 92l178 152q-156 141 -156 313q0 164 118 286t284 122zM182 -170q0 -14 2 -23h2q33 -76 122 -115.5t197.5 -39.5t187.5 39t81 108v8q0 92 -46 128t-167 36h-31q-4 0 -16 -1t-18 -1q-18 -2 -70 -2 q-100 0 -168 25q-76 -86 -76 -162zM297 616.5q0 -88.5 65.5 -152t155.5 -63.5q92 0 157.5 63.5t65.5 151.5q0 90 -66.5 160t-156.5 70t-155.5 -70.5t-65.5 -159z" />
<glyph glyph-name="h" unicode="h" horiz-adv-x="1036" d="M328 770v-778q-45 -18 -101 -19q-25 0 -51 5.5t-41 9.5l-14 4v1411q-2 6 0 15t28.5 25.5t77.5 18.5q96 -2 97 -53l4 -457q98 66 229 66q176 0 302 -126t134 -306v-594q-63 -18 -114 -19q-25 0 -48.5 5.5t-33.5 11.5l-11 6v588q-18 92 -102 159.5t-195 67.5 q-85 0 -161 -41z" />
<glyph glyph-name="i" unicode="i" horiz-adv-x="458" d="M133 1212v45q0 35 25.5 59.5t60.5 24.5h45q35 0 59.5 -24.5t24.5 -59.5v-45q0 -35 -24.5 -59.5t-59.5 -24.5h-45q-35 0 -60.5 24.5t-25.5 59.5zM338 987l2 -954q0 -27 -32 -43.5t-72.5 -16.5t-70.5 13.5t-30 38.5l-2 958q0 14 42 32.5t81 18.5q76 0 82 -47z" />
<glyph glyph-name="j" unicode="j" horiz-adv-x="456" d="M-213 -528l-2 2q-27 47 -27 86q0 37 27 88q96 0 165.5 47t100.5 105.5t47.5 137t17.5 111.5t1 60v2l-2 862q0 14 46 32.5t87 18.5q74 0 78 -51v-78q0 -16 1 -271t1 -513q0 -166 -37 -290t-89 -189.5t-123 -104.5t-122 -49t-104 -10zM117 1194v43q0 37 23.5 61.5 t60.5 24.5h41q37 0 61.5 -25.5t24.5 -60.5v-43q0 -37 -24.5 -60.5t-61.5 -23.5h-41q-37 0 -60.5 23.5t-23.5 60.5z" />
<glyph glyph-name="k" unicode="k" horiz-adv-x="1032" d="M381 592l-31 -6v-598q-70 -14 -117 -15q-45 0 -83 21l-3 1419q0 14 43 32.5t84 18.5q76 0 76 -51l-2 -637q78 37 264 158q8 4 22.5 14t16.5 13q6 4 16.5 10t18.5 11l14 9h-2q45 33 58 33q25 0 70.5 -45t45.5 -74q0 -23 -102 -95.5t-201 -127.5l205 -283l213 -290 q4 -18 -47 -78t-88 -60q-20 0 -35 19l-244 336z" />
<glyph glyph-name="l" unicode="l" horiz-adv-x="446" d="M319 1503l3 -1472q0 -27 -33 -43.5t-74 -16.5q-43 0 -72.5 14.5t-29.5 37.5l-2 1476q0 14 43 32.5t84 18.5q75 0 81 -47z" />
<glyph glyph-name="m" unicode="m" horiz-adv-x="1738" d="M289 674v-664q0 -35 -92 -35q-43 0 -79 10.5t-36 24.5v942q0 35 98 52q49 0 76 -14.5t30 -24t3 -15.5v-69q111 139 274 139q240 0 338 -203q66 82 158 142.5t180 60.5q86 0 151.5 -21.5t130 -79t100.5 -179.5t36 -302v-428q0 -14 -30 -24.5t-70.5 -10.5t-74.5 10.5 t-34 24.5v496q0 305 -234 305q-72 0 -147.5 -33t-116.5 -100q18 -74 19 -240l-2 -428q0 -18 -29 -28.5t-66 -10.5q-41 0 -76.5 11.5t-35.5 25.5v498q0 305 -219 305q-66 0 -138.5 -35.5t-113.5 -101.5z" />
<glyph glyph-name="n" unicode="n" horiz-adv-x="1085" d="M303 0l-4 4q-20 -29 -98 -29q-43 0 -75 11.5t-32 29.5l2 940q37 45 125 45q35 0 55.5 -13t23.5 -26l3 -14v-69q113 141 289 141q66 0 120 -11.5t112.5 -49t97.5 -99t64.5 -170t25.5 -254.5l-4 -420q0 -41 -90 -41q-43 0 -80 11.5t-37 29.5v490q0 303 -234 303 q-66 0 -143.5 -35t-120.5 -100v-674z" />
<glyph glyph-name="o" unicode="o" horiz-adv-x="1128" d="M274 508q0 -160 80 -261.5t213 -101.5q150 0 228.5 93.5t78.5 269.5q0 150 -90 238t-217 88q-121 0 -207 -95.5t-86 -230.5zM72 514q0 219 145 362.5t356 143.5t356.5 -143.5t145.5 -362.5q0 -266 -142 -412.5t-362 -146.5q-217 0 -358 148.5t-141 410.5z" />
<glyph glyph-name="p" unicode="p" horiz-adv-x="1075" d="M100 -475v1407q20 10 56.5 24.5t150 39t228.5 24.5q238 0 366.5 -126t128.5 -364q0 -260 -151.5 -417.5t-397.5 -157.5q-92 0 -168 16v-454q0 -6 -3 -15.5t-29.5 -26t-73.5 -16.5q-12 0 -29.5 2t-47.5 18.5t-30 45.5zM524 834q-133 0 -215 -33q0 -203 2 -307 q0 -53 1 -153.5t1 -152.5q86 -27 170 -26q133 0 225.5 81t92.5 287q0 160 -76 232t-201 72z" />
<glyph glyph-name="q" unicode="q" horiz-adv-x="1064" d="M967 -487q-2 -6 -7.5 -14.5t-33 -24t-68.5 -15.5q-72 0 -100 52l-6 473q-127 -29 -244 -29q-217 0 -338 115.5t-121 347.5q0 293 158 447.5t407 154.5q121 0 209 -23.5t116 -47.5l28 -23v-1413zM754 176v639q-53 27 -129 27q-49 0 -82 -2q-115 -12 -197 -119t-82 -270 q0 -301 303 -301q33 0 80 7t77 13z" />
<glyph glyph-name="r" unicode="r" horiz-adv-x="837" d="M567 813q-70 0 -144.5 -42t-105.5 -105v-637q-33 -61 -96 -62q-39 0 -72.5 18.5t-33.5 34.5v928q2 6 6 15.5t32.5 25t73.5 15.5q35 0 57.5 -12.5t27.5 -23.5l5 -12v-69q94 133 263 133q66 0 151.5 -41t85.5 -88q0 -39 -30.5 -86t-57.5 -45q-86 53 -162 53z" />
<glyph glyph-name="s" unicode="s" horiz-adv-x="835" d="M567 264q0 125 -135 125q-115 0 -188.5 25.5t-104 75t-40 92.5t-9.5 108q0 154 108.5 244t260 90t270.5 -111q12 -12 12 -32q0 -35 -27.5 -89.5t-54.5 -54.5q-82 104 -198 105q-74 0 -121 -38t-47 -114q0 -68 30.5 -97.5t127.5 -29.5q172 0 245.5 -74.5t73.5 -222.5 q0 -162 -95 -239.5t-241 -77.5q-205 0 -336 114h2q-18 10 -18 31q0 37 46 85t65 48q39 -37 103 -61.5t128 -24.5q61 0 102 31t41 92z" />
<glyph glyph-name="t" unicode="t" horiz-adv-x="702" d="M391 793l2 -437q0 -127 34 -171t161 -44q37 0 37 -65q0 -35 -13.5 -65.5t-36.5 -30.5h-20q-197 0 -254 49q-8 6 -17.5 15t-27.5 35.5t-32.5 59.5t-25 90.5t-10.5 122.5l-4 439h-2q-2 0 -7 -1.5t-9 -1.5h-19q-74 0 -88 9.5t-14 58.5q0 137 39 137q49 -2 86 -2h16h2v205 q0 4 3.5 11t30 20.5t75.5 17.5q94 0 94 -49v-203h55q10 0 29 1t27 1h82q55 0 67.5 -16t12.5 -84q0 -104 -39 -104q-92 2 -168 2h-66z" />
<glyph glyph-name="u" unicode="u" horiz-adv-x="1112" d="M807 965l4 8q16 29 98 28q41 0 74 -10t33 -28l2 -953q-39 -39 -127 -39q-35 0 -55.5 13.5t-23.5 26.5l-3 14v86q-55 -78 -123 -118t-174 -40q-66 0 -118 11t-110.5 48t-96 99.5t-63.5 175t-26 266.5l4 408q0 41 91 40q39 0 77.5 -13t38.5 -27v-478q0 -170 53.5 -243.5 t182.5 -73.5q61 0 139 42t123 109v648z" />
<glyph glyph-name="v" unicode="v" horiz-adv-x="997" d="M274 944l209 -651l69 178t54 139l135 348q33 47 88 48q63 0 90 -27t27 -55l-373 -914q-45 -29 -96 -28q-20 0 -47 7t-42 14l-15 7l-324 920q0 6 1 11t7 18.5t16.5 22.5t34 16.5t56.5 7.5q90 -1 110 -62z" />
<glyph glyph-name="w" unicode="w" horiz-adv-x="1505" d="M1018 305l151 586l6.5 13t4.5 14q43 78 118 77q31 0 53.5 -7t33 -16t16.5 -22.5t6 -18.5v-9l-283 -912q-57 -29 -100 -28q-23 0 -51.5 7t-45.5 13l-18 6l-170 570l-80 -267q-72 -229 -92 -301q-57 -29 -100 -28q-23 0 -51.5 7t-44.5 13l-17 6l-274 905l-1 6q-1 5 -1 7 q0 14 7 29.5t34.5 30.5t73.5 15q33 0 56 -13t30.5 -23.5t9.5 -18.5l172 -637q10 45 78 291l90 336q31 63 121 63q80 0 100 -69z" />
<glyph glyph-name="x" unicode="x" horiz-adv-x="1075" d="M795 -18l-277 360l-242 -311l-36 -47q-4 -4 -37 -4q-41 0 -92.5 29.5t-51.5 56.5q0 23 355 448l-131 182l-138 189q-10 20 -10 33q0 33 42 59.5t85 26.5q41 0 64 -29l118 -162l111 -147l123 151l141 176q10 10 39 11q39 0 80 -32t41 -71q0 -23 -14 -43l-308 -371 l146 -194l149 -199v2q8 -8 9 -30q0 -29 -47.5 -56.5t-88.5 -27.5h-30z" />
<glyph glyph-name="y" unicode="y" horiz-adv-x="1048" d="M106 -528l-2 2q-27 47 -26 86q0 31 28 86q76 0 135.5 29.5t93.5 72.5t57.5 101.5t32.5 102.5t13 89l-202 442l-201 441q-8 8 -8 22q0 4 8 15.5t41 25.5t82 14q31 0 53 -12t30 -24l7 -13q4 -8 12 -28.5t12 -28.5l277 -608q25 55 37 92l225 600q4 29 49 29q41 0 90 -26 t49 -52q0 -10 -2 -17q-154 -399 -270 -737q-102 -291 -197 -493q-100 -213 -368 -213z" />
<glyph glyph-name="z" unicode="z" horiz-adv-x="856" d="M776 168h2q39 -2 39 -72q0 -41 -18.5 -78.5t-42.5 -37.5q-55 -6 -143.5 -7.5t-215.5 0.5t-161 2q-111 0 -150 20.5t-39 88.5q0 53 37 115q156 258 434 546q59 57 70 72h-72q-131 0 -326 -10h-8q-63 0 -63 61q0 68 10 88.5t39 30.5q117 12 252 12q150 0 336 -14 q23 -2 45 -34.5t22 -78.5q0 -68 -55 -124q-66 -76 -161 -170.5t-171 -185.5t-164 -232h113z" />
<glyph glyph-name="braceleft" unicode="{" horiz-adv-x="802" d="M59 715q0 78 52 82q12 2 27.5 8t43 21.5t46 50t18.5 81.5v496q6 66 31.5 113t57.5 70.5t82 37t87 16.5t88 3q53 0 70.5 -16.5t17.5 -82.5q0 -63 -37 -63q-106 0 -148 -23.5t-44 -91.5v-231q0 -39 1 -117t1 -115q-4 -78 -37 -127t-65 -60l-32 -11q-8 0 -8 -39q0 -43 4 -43 q6 0 14.5 -2t32 -13.5t41 -32t33 -63.5t17.5 -102v-527q0 -68 42 -91t148 -23q37 0 37 -65.5t-18.5 -81t-73.5 -15.5q-53 0 -91 3t-89.5 17.5t-83 41t-55 78.5t-23.5 126v541q0 45 -13.5 80t-33 50t-40 25.5t-33.5 11.5l-13 1q-25 2 -39.5 26.5t-14.5 55.5z" />
<glyph glyph-name="bar" unicode="|" horiz-adv-x="704" d="M424 1417l2 -1380q0 -27 -29.5 -43.5t-68.5 -16.5t-67 13.5t-28 38.5l-2 1384q0 14 39 32.5t76 18.5q72 0 78 -47z" />
<glyph glyph-name="braceright" unicode="}" horiz-adv-x="776" d="M492 958q0 -61 32.5 -101t58 -49t44.5 -11q49 -4 49 -82t-51 -82q-6 0 -14.5 -1t-32 -11.5t-41 -25.5t-31.5 -50t-14 -80v-541q0 -74 -24 -126t-55.5 -78.5t-84 -41t-89 -17.5t-92 -3t-73 15.5t-17.5 81t37 65.5q106 0 148.5 23.5t42.5 90.5v527q2 92 36.5 145t67.5 61 l33 7q4 0 4 43q0 39 -8 39q-4 0 -13.5 3t-31 16t-39 33.5t-32.5 58.5t-17 87v463q0 68 -42 91.5t-149 23.5q-37 0 -37 63q0 35 12.5 66t34.5 33q175 0 247 -29q130 -52 141 -211v-496z" />
<glyph glyph-name="asciitilde" unicode="~" horiz-adv-x="724" d="M670 543h-2q-82 -109 -197 -109q-45 0 -152 49q-90 41 -110 41q-25 0 -45.5 -10t-28.5 -20l-8 -11q-25 -12 -29 -12q-31 0 -64.5 49t-33.5 84q0 23 27 49v-6q57 47 129 47q96 0 217 -78q33 -18 55 -18q57 0 111 78v-2q12 25 26 24q29 0 71 -47t42 -80q0 -20 -8 -28z" />
<glyph glyph-name="exclamdown" unicode="&#xa1;" horiz-adv-x="649" d="M215 920v45q0 35 25.5 59.5t60.5 24.5h45q35 0 59.5 -25t24.5 -59v-45q0 -35 -24.5 -59.5t-59.5 -24.5h-45q-35 0 -60.5 24.5t-25.5 59.5zM420 694l2 -1067q0 -27 -32 -43t-73 -16t-70.5 13t-29.5 38l-2 1071q0 14 42 32.5t81 18.5q76 0 82 -47z" />
<glyph glyph-name="cent" unicode="&#xa2;" horiz-adv-x="1099" d="M702 -16v-140q0 -27 -29.5 -43t-68.5 -16t-66.5 13.5t-27.5 37.5l-2 158q-170 43 -277.5 189.5t-107.5 336.5q0 184 108.5 319.5t276.5 174.5v219q0 14 39 32.5t76 18.5q72 0 77 -47v-209q82 -4 162 -32.5t80 -82.5q0 -100 -94 -133q-55 53 -148 60v-654q66 14 148 78 l14 2q27 0 58.5 -42t31.5 -81q0 -53 -82 -98t-168 -61zM328 514q0 -106 48 -188t132 -117v606q-82 -33 -131 -115t-49 -186z" />
<glyph glyph-name="sterling" unicode="&#xa3;" horiz-adv-x="1114" d="M104 -20h-8q-18 0 -30.5 28.5t-12.5 69.5q0 74 35 86q76 35 150 35q57 143 73 381h-16q-92 0 -109.5 10t-17.5 65v41q-2 49 6 57.5t59 8.5h76v213q0 37 1 110.5t1 110.5q0 113 117 188.5t260 75.5q68 0 130.5 -19.5t62.5 -66.5q0 -39 -26 -84t-50 -43q-57 29 -133 29 q-68 0 -115 -26.5t-47 -78.5v-395h100h23q33 0 94 -4h14q8 -2 27 -2q4 0 14.5 -1t16.5 -1q16 -4 28.5 -29.5t12.5 -58.5q0 -90 -49 -92q-111 6 -201 6q-57 0 -78 -2q-41 -279 -41 -377q0 -78 115 -78q123 0 391 94q33 0 50 -32.5t17 -71.5q0 -55 -26 -64q-285 -98 -451 -98 q-74 0 -176 27q-76 23 -123 22q-60 1 -164 -34z" />
<glyph glyph-name="currency" unicode="&#xa4;" horiz-adv-x="1386" d="M877 1223l151 192q4 16 27 17q33 0 87 -34t54 -73q0 -10 -12 -35l-146 -186q123 -135 123 -340q0 -199 -114 -342q10 -14 33.5 -43t33.5 -43q61 -82 72 -92v2q6 -6 6 -27q0 -31 -47 -72t-84 -41q-23 0 -37 19l-68 86q-49 61 -61 80q-104 -61 -238 -62q-141 0 -247 68 l-39 -53q-84 -106 -90 -117q-4 -4 -29 -4q-35 0 -83 42t-48 71q0 10 8 22q27 37 70 90l65 84q-106 145 -106 332q0 195 112 330l-139 180q-12 25 -12 35q0 41 68.5 79.5t88.5 24.5l154 -199q104 55 229 56q122 0 218 -47zM360 758q0 -139 82 -239.5t211 -100.5 q147 0 227.5 90t80.5 250q0 150 -90.5 237.5t-217.5 87.5q-121 0 -207 -95t-86 -230z" />
<glyph glyph-name="yen" unicode="&#xa5;" horiz-adv-x="1310" d="M487 152h-280q-29 0 -44.5 30.5t-15.5 73.5q0 39 14.5 69.5t37.5 30.5h288v127h-270q-29 0 -44 31t-15 74q0 39 14 69.5t37 30.5h278v51l-184 301l-188 312q-6 16 50 64t93 48q23 0 39 -20l293 -500l209 252l231 277q4 4 25 4q35 0 83 -61.5t44 -80.5l-490 -587v-60h154 q27 0 82 1t84 1q14 0 32.5 -42t18.5 -81q0 -76 -47 -82l-324 -2v-127h150q27 0 80 1t79 1q14 0 33 -42t19 -80q0 -76 -47 -82l-314 -2v-162q-72 -14 -119 -14.5t-86 20.5v156z" />
<glyph glyph-name="brokenbar" unicode="&#xa6;" horiz-adv-x="458" d="M319 1423l3 -694q0 -27 -31 -43t-70 -16q-41 0 -69.5 14t-28.5 37l-2 698q0 14 40 32.5t79 18.5q73 0 79 -47zM319 508l3 -694q0 -27 -31 -43.5t-70 -16.5q-41 0 -69.5 14.5t-28.5 36.5l-2 699q0 14 40 32.5t79 18.5q73 0 79 -47z" />
<glyph glyph-name="section" unicode="&#xa7;" horiz-adv-x="937" d="M614 147q0 88 -38.5 154t-112.5 66q-199 0 -274.5 84t-75.5 268q0 92 90 172q-90 102 -90 328q0 117 112.5 187.5t257.5 70.5q82 0 168 -28t86 -81q0 -37 -32.5 -85t-53.5 -48q-59 53 -174 53q-72 0 -122 -23.5t-50 -68.5q0 -109 38 -158t159 -49q141 0 218 -86t77 -223 q0 -147 -78 -225q78 -94 78 -305q0 -158 -94.5 -232t-239.5 -74q-203 0 -338 103h2q-18 8 -18 28q0 37 46 86.5t64 49.5q102 -76 242 -76q153 -1 153 112zM614 678q0 39 -9 62.5t-32.5 32.5t-41 11t-54.5 2q-72 0 -122 -22.5t-50 -67.5q0 -80 12 -106q74 -25 141.5 -25 t111.5 28t44 85z" />
<glyph glyph-name="dieresis" unicode="&#xa8;" horiz-adv-x="1062" d="M221 1243v12q0 47 31 78t78 31h12q45 0 74.5 -30.5t29.5 -78.5v-12q0 -45 -29.5 -75.5t-74.5 -30.5h-12q-47 0 -78 30.5t-31 75.5zM573 1243v12q0 47 31 78t78 31h12q45 0 75 -30.5t30 -78.5v-12q0 -47 -30 -76.5t-75 -29.5h-12q-47 0 -78 30.5t-31 75.5z" />
<glyph glyph-name="copyright" unicode="&#xa9;" horiz-adv-x="1492" d="M88 725q0 305 192.5 520t467 215t467 -215t192.5 -520t-192.5 -520t-467 -215t-467 215t-192.5 520zM1217 727q0 229 -140.5 394t-331.5 165q-188 0 -327 -168t-139 -397q0 -227 138 -386t328.5 -159t331 162t140.5 389zM954 893q-14 0 -26 10q-59 33 -125 33 q-82 0 -138.5 -54.5t-56.5 -146.5q0 -90 56.5 -150.5t130.5 -60.5q72 0 135 64q6 6 22 6q23 0 48.5 -42t25.5 -79q0 -57 -85 -93t-148 -36q-150 0 -260.5 115.5t-110.5 279.5q0 166 112.5 269.5t266.5 103.5q51 0 142 -27.5t91 -68.5q0 -29 -27.5 -76t-52.5 -47z" />
<glyph glyph-name="ordfeminine" unicode="&#xaa;" horiz-adv-x="811" d="M657 1186q0 -39 -8 -101q-2 -4 -2 -14t-2 -14q-6 -41 -6 -76q0 -117 123 -197q-115 -68 -168 -67q-61 0 -107 53q-96 -51 -182 -51q-100 0 -177 56t-77 194q0 123 110.5 200.5t246.5 77.5q53 0 75 -4q2 14 2 45q0 98 -92 98t-164 -51h2q-6 -6 -24 -6q-23 0 -52.5 46 t-29.5 71q0 29 99.5 67.5t156.5 38.5q55 0 86 -3t73 -19.5t64.5 -47t38.5 -91t16 -148.5q0 -4 -1 -8t-1 -6v-43zM293 899h4q8 -2 25 -2q57 0 143 27v30q0 47 2 66v29q0 6 1 17t1 15t-45 4q-186 0 -186 -104q0 -76 55 -82z" />
<glyph glyph-name="guillemotleft" unicode="&#xab;" horiz-adv-x="970" d="M434 475h2q-8 10 -8 39q0 20 4 33l295 387q16 23 47 22q39 0 79 -35.5t36 -56.5l-281 -350q16 -18 46 -56l46 -57l183 -223q4 -16 -37 -57t-78 -41q-29 0 -45 22zM66 475h2q-8 10 -9 39q0 20 4 33l295 387q16 23 48 22q39 0 78.5 -35.5t35.5 -56.5l-280 -350 q16 -18 45.5 -56t46.5 -57l182 -223q4 -16 -37 -57t-78 -41q-29 0 -45 22z" />
<glyph glyph-name="logicalnot" unicode="&#xac;" horiz-adv-x="1179" d="M885 471h-756q-29 0 -44 25.5t-15 64.5t13 65.5t38 26.5l811 2h22q80 0 93.5 -15t13.5 -108v-30l2 -291q0 -16 -35 -33.5t-70 -17.5q-66 0 -71 47z" />
<glyph glyph-name="uni00AD" unicode="&#xad;" horiz-adv-x="1013" d="M885 592l-756 -2q-29 0 -44 30.5t-15 73.5q0 39 14 70t37 31l760 2q14 0 32.5 -42t18.5 -81q0 -76 -47 -82z" />
<glyph glyph-name="registered" unicode="&#xae;" horiz-adv-x="1517" d="M88 725q0 305 192.5 520t467 215t467 -215t192.5 -520t-192.5 -520t-467 -215t-467 215t-192.5 520zM1217 727q0 229 -140.5 394t-331.5 165q-188 0 -327 -168t-139 -397q0 -227 138 -386t328.5 -159t331 162t140.5 389zM506 422v651q96 39 215 39q129 0 217 -59.5 t88 -190.5q0 -88 -44 -142t-116 -73l10 -12q9 -12 15 -19l141 -172q0 -20 -39 -55t-84 -35q-27 0 -47 21l-172 211q-4 4 -8 10q0 -18 1 -47t1 -49v-131q-41 -16 -92 -17q-86 0 -86 70zM684 938l2 -147h35q123 0 123 61q0 92 -103 92q-26 0 -57 -6z" />
<glyph glyph-name="macron" unicode="&#xaf;" horiz-adv-x="770" d="M702 1225l-622 -2q-31 0 -45.5 15t-14.5 58q0 84 52 84l626 2q18 0 35 -20.5t17 -61.5q-1 -69 -48 -75z" />
<glyph glyph-name="degree" unicode="&#xb0;" horiz-adv-x="782" d="M283 1266q0 -59 22.5 -92t42 -37t45.5 -4q18 0 31.5 3t30 14t24.5 41t8 77q0 43 -10 70.5t-31.5 36.5t-34 11.5t-34.5 2.5h-14.5t-22.5 -6.5t-28.5 -17.5t-19.5 -36.5t-9 -62.5zM115 1268q0 276 270 276q55 0 98 -10t87 -38t68 -85t24 -143q0 -166 -77 -233.5t-190 -67.5 q-280 0 -280 301z" />
<glyph glyph-name="plusminus" unicode="&#xb1;" horiz-adv-x="1212" d="M483 1098v260q0 29 31 44t74 15q37 0 68.5 -14t31.5 -37v-268h139q27 0 77 1t75 1q14 0 32.5 -42t18.5 -81q0 -76 -47 -82l-295 -2v-139q0 -25 1 -74t1 -74q0 -16 -42 -33.5t-81 -17.5q-76 0 -82 47l-2 291h-256q-29 0 -44 30.5t-15 73.5q0 39 14.5 70t36.5 31h264z M983 152l-756 -2q-29 0 -44 30.5t-15 73.5q0 39 14.5 69.5t36.5 30.5l760 2q14 0 32.5 -42t18.5 -81q0 -75 -47 -81z" />
<glyph glyph-name="uni00B2" unicode="&#xb2;" horiz-adv-x="948" d="M141 1348q12 12 54.5 36.5t125 53t164.5 28.5q57 0 107.5 -12t101.5 -43t81 -93.5t30 -150.5q0 -66 -18.5 -114.5t-62.5 -87.5t-72.5 -57.5t-92.5 -53.5q-59 -31 -79.5 -43t-59.5 -44t-54.5 -68.5t-17.5 -86.5h424q18 -55 19 -92q0 -16 -6.5 -39.5t-13.5 -38.5l-7 -14 h-563q-72 0 -72 168q0 68 20.5 123t43 89t71.5 72t76 52l86 45t90 49t58.5 52t27.5 73q0 135 -108 135q-66 0 -120.5 -20.5t-76.5 -41.5l-23 -22q-10 -10 -28 -10q-29 0 -70 55.5t-41 79.5q0 15 6 21z" />
<glyph glyph-name="uni00B3" unicode="&#xb3;" horiz-adv-x="894" d="M571 1169q0 113 -147 113q-92 0 -174 -65h2q-14 -14 -31 -15q-20 0 -67.5 56.5t-44.5 80.5q170 123 315 123q43 0 91 -11t108.5 -39t99.5 -93.5t39 -159.5q0 -186 -88 -248q102 -76 102 -239q0 -125 -98 -216t-250 -91q-170 0 -334 120l2 23q0 37 41 88t74 51q0 -2 4 -6 q6 -8 17.5 -21.5t59.5 -38t107 -32.5q78 4 134.5 43t56.5 100q0 129 -205 129q-35 0 -84 -6q-16 0 -30.5 36t-14.5 73q0 74 41 75l176 7q39 0 68.5 44.5t29.5 118.5z" />
<glyph glyph-name="acute" unicode="&#xb4;" horiz-adv-x="655" d="M514 1260l-348 -146q-23 0 -54.5 30t-31.5 66q0 45 53 74l301 156q14 6 60.5 -44t46.5 -87q0 -24 -27 -49z" />
<glyph glyph-name="uni00B5" unicode="&#xb5;" horiz-adv-x="1273" d="M246 1020h200v-746q88 -123 293 -122q63 0 118.5 20.5t76.5 48.5q18 49 18 330q0 184 -2 268q0 18 -1 56t-1 55v90h211q6 -193 6 -385q0 -455 -51 -537q-115 -150 -387 -149q-170 0 -281 88v-240q0 -45 1.5 -131t1.5 -129q0 -74 -109 -74q-39 0 -66.5 12.5t-27.5 32.5 v1512z" />
<glyph glyph-name="paragraph" unicode="&#xb6;" horiz-adv-x="1316" d="M98 1067q0 215 117 306t332 91l450 2q8 0 16.5 -9t17.5 -49t9 -103v-1199q0 -66 39 -102.5t78 -41.5l39 -5q16 0 27.5 -20.5t11.5 -45.5q0 -31 -12.5 -55t-30.5 -24q-12 0 -34.5 3t-78 21.5t-97.5 47t-77 87t-35 135.5q-6 283 -6 676q0 270 6 508q-33 4 -57 4 q-31 0 -57 -6v-1177q0 -86 15 -149.5t37.5 -93.5t46.5 -47.5t39 -19.5l15 -2q39 -2 39 -71q0 -74 -45 -74q-12 0 -34.5 2t-78 26.5t-97.5 67.5t-76.5 137.5t-34.5 223.5v510q-12 -2 -58 -3q-51 0 -100 8.5t-111.5 37t-107.5 74.5t-76 131t-31 198z" />
<glyph glyph-name="periodcentered" unicode="&#xb7;" horiz-adv-x="442" d="M57 571v19q0 59 41 100t103 41h18q57 0 98 -41t41 -100v-19q0 -61 -41 -102t-98 -41h-18q-61 0 -102.5 40t-41.5 103z" />
<glyph glyph-name="cedilla" unicode="&#xb8;" horiz-adv-x="520" d="M186 78h158l18 -111q80 -27 80 -96q0 -66 -62.5 -114t-126 -65.5t-103.5 -17.5q-20 0 -43 37t-23 60q0 27 59 34q117 28 133 55q4 7 5 15q0 16 -26 35.5t-52 32.5l-27 12z" />
<glyph glyph-name="uni00B9" unicode="&#xb9;" horiz-adv-x="849" d="M649 410l-2 -13q-14 -14 -82 -14q-80 0 -110 14v746q-29 -23 -35 -27q-16 -14 -49 -39q-111 -90 -185 -145q-20 4 -64 45t-44 74q0 18 14 32l340 291l74 64q25 8 63 8q78 0 80 -49v-987z" />
<glyph glyph-name="ordmasculine" unicode="&#xba;" horiz-adv-x="970" d="M252 1136.5q0 -94.5 61.5 -165t151.5 -70.5q88 0 151.5 70.5t63.5 165t-63.5 165t-151.5 70.5q-90 0 -151.5 -70.5t-61.5 -165zM66 1145q0 174 116.5 288.5t284.5 114.5q166 0 281.5 -114.5t115.5 -288.5q0 -178 -116.5 -303t-280.5 -125q-168 0 -284.5 125t-116.5 303z " />
<glyph glyph-name="guillemotright" unicode="&#xbb;" horiz-adv-x="1114" d="M621 465l-283 -363q-16 -23 -47 -22q-37 0 -77 41t-36 57l277 336l-140 170q-94 115 -143 180q-4 18 36 55t77 37q33 0 49 -22l295 -387q2 -6 2 -33q0 -29 -10 -49zM989 465l-282 -363q-16 -23 -48 -22q-37 0 -76.5 41t-35.5 57l276 336l-139 170q-94 115 -143 180 q-4 18 35.5 55t76.5 37q33 0 49 -22l295 -387q2 -6 2 -33q0 -29 -10 -49z" />
<glyph glyph-name="onequarter" unicode="&#xbc;" horiz-adv-x="2117" d="M1237 266l-18 19l12 143l469 600q33 8 69 8q86 0 86 -57v-522h134q12 -70 12 -109t-23 -82h-123v-280q-61 -14 -108 -15q-41 0 -80 21v274h-430zM1477 1374l-697 -1394q-10 -18 -43 -19q-39 0 -87 33t-48 59q0 16 10 21l379 760l305 610q4 27 39 26q49 0 95.5 -27.5 t46.5 -68.5zM649 410l-2 -13q-14 -14 -82 -14q-80 0 -110 14v746q-29 -23 -35 -27q-16 -14 -49 -39q-111 -90 -185 -145q-20 4 -64 45t-44 74q0 18 14 32l340 291l74 64q25 8 63 8q78 0 80 -49v-987zM1479 446l188 11v231l-35 -47l-67 -85z" />
<glyph glyph-name="onehalf" unicode="&#xbd;" horiz-adv-x="2080" d="M1458 1360l-696 -1376q-16 -23 -43 -23q-39 0 -87 33t-48 59q0 16 8 21l344 678l344 682l-2 -4q0 27 39 26q49 0 95 -27.5t46 -68.5zM1319 901q12 12 54 37t125 53.5t165 28.5q57 0 107.5 -12.5t101.5 -43t80.5 -93t29.5 -150.5q0 -66 -18 -115t-62 -88t-73 -57.5 t-92 -52.5q-59 -31 -80 -43.5t-59.5 -44t-54 -68.5t-17.5 -86h424q18 -55 18 -92q0 -16 -7 -40t-13 -38l-6 -14h-564q-72 0 -71 168q0 68 20.5 123t43 88.5t71.5 71.5t75.5 52.5l86 45t90 49t58.5 52.5t28 73q0 135 -109 135q-66 0 -120 -20.5t-76 -42.5l-23 -21 q-10 -10 -29 -11q-29 0 -69.5 55.5t-40.5 80.5q0 14 6 20zM649 410l-2 -13q-14 -14 -82 -14q-80 0 -110 14v746q-29 -23 -35 -27q-16 -14 -49 -39q-111 -90 -185 -145q-20 4 -64 45t-44 74q0 18 14 32l340 291l74 64q25 8 63 8q78 0 80 -49v-987z" />
<glyph glyph-name="threequarters" unicode="&#xbe;" horiz-adv-x="2240" d="M1360 266l-19 19l13 143l469 600q33 8 69 8q86 0 86 -57v-522h133q12 -70 12.5 -109t-22.5 -82h-123v-280q-61 -14 -108 -15q-41 0 -80 21v274h-430zM623 1169q0 113 -148 113q-92 0 -174 -65h2q-14 -14 -31 -15q-20 0 -67 56.5t-45 80.5q170 123 315 123q43 0 91 -11 t108.5 -39t99.5 -93.5t39 -159.5q0 -186 -88 -248q102 -76 102 -239q0 -125 -98 -216t-250 -91q-170 0 -334 120l2 23q0 37 41 88t74 51q0 -2 4 -6q6 -8 17.5 -21.5t59.5 -38t108 -32.5q78 4 134 43t56 100q0 129 -205 129q-35 0 -84 -6q-16 0 -30.5 36t-14.5 73q0 74 41 75 l176 7q39 0 69 44.5t30 118.5zM1599 1374l-696 -1394q-10 -18 -43 -19q-39 0 -87 33t-48 59q0 16 10 21l379 760l305 610q4 27 39 26q49 0 95 -27.5t46 -68.5zM1608 457h182q0 43 -2 113.5t-2 113.5q-25 -31 -55 -72z" />
<glyph glyph-name="questiondown" unicode="&#xbf;" horiz-adv-x="909" d="M485 653q20 33 86 33q102 0 103 -57v-15q0 -4 -1 -10t-1 -8q-2 -12 -2 -35q0 -10 4 -43q4 -20 4 -39q0 -70 -34 -125t-67.5 -80.5t-103.5 -68.5q-68 -39 -101.5 -64.5t-67.5 -80t-34 -121.5q0 -197 189 -197q168 0 266 119q23 0 68 -45t45 -80q0 -49 -126 -109.5 t-243 -60.5q-170 0 -280.5 92t-110.5 295q0 66 15.5 119t32.5 84.5t55 62.5t59.5 44t68.5 38q59 31 88 51.5t57.5 69.5t28.5 119q0 12 -2 22q-2 4 -2 6q-4 25 -4 43q0 29 10 41zM686 940v-12q0 -47 -31.5 -78t-76.5 -31h-13q-45 0 -75.5 32t-30.5 77v12q0 47 30.5 78 t75.5 31h13q47 0 77.5 -31t30.5 -78z" />
<glyph glyph-name="Agrave" unicode="&#xc0;" horiz-adv-x="1388" d="M98 57l570 1377q18 33 108 32q74 0 88 -30l471 -1383h-2q6 -12 6 -18q0 -55 -88 -55q-100 0 -121 47l-126 405h-529l-78 -190q-66 -156 -75 -183q-47 -82 -107 -82q-45 0 -81 26.5t-36 53.5zM934 627l-186 479l-89 -213l-108 -266h383zM809 1548l-344 142q-31 20 -31 53 q0 37 46 87t61 44l301 -156q53 -29 53 -73q0 -37 -31.5 -67t-54.5 -30z" />
<glyph glyph-name="Aacute" unicode="&#xc1;" horiz-adv-x="1388" d="M98 57l570 1377q18 33 108 32q74 0 88 -30l471 -1383h-2q6 -12 6 -18q0 -55 -88 -55q-100 0 -121 47l-126 405h-529l-78 -190q-66 -156 -75 -183q-47 -82 -107 -82q-45 0 -81 26.5t-36 53.5zM934 627l-186 479l-89 -213l-108 -266h383zM1038 1694l-348 -146 q-23 0 -54.5 30t-31.5 67q0 45 53 73l301 156q14 6 60.5 -44t46.5 -87q0 -24 -27 -49z" />
<glyph glyph-name="Acircumflex" unicode="&#xc2;" horiz-adv-x="1382" d="M98 57l570 1377q18 33 108 32q74 0 88 -30l471 -1383h-2q6 -12 6 -18q0 -55 -88 -55q-100 0 -121 47l-126 405h-529l-78 -190q-66 -156 -75 -183q-47 -82 -107 -82q-45 0 -81 26.5t-36 53.5zM934 627l-186 479l-89 -213l-108 -266h383zM772 1878h25l272 -149 q14 -12 14 -39q0 -37 -38.5 -77t-55.5 -36l-219 125l-115 -60l-123 -65q-16 -4 -47.5 37t-31.5 76q0 31 14 43l268 139q12 6 37 6z" />
<glyph glyph-name="Atilde" unicode="&#xc3;" horiz-adv-x="1388" d="M98 57l570 1377q18 33 108 32q74 0 88 -30l471 -1383h-2q6 -12 6 -18q0 -55 -88 -55q-100 0 -121 47l-126 405h-529l-78 -190q-66 -156 -75 -183q-47 -82 -107 -82q-45 0 -81 26.5t-36 53.5zM934 627l-186 479l-89 -213l-108 -266h383zM1094 1671h-2q-82 -109 -197 -108 q-45 0 -152 49q-90 41 -110 41q-25 0 -45.5 -10.5t-28.5 -20.5l-8 -10q-25 -12 -29 -13q-31 0 -64.5 49.5t-33.5 84.5q0 23 27 49v-6q57 47 129 47q96 0 217 -78q33 -18 55 -19q57 0 111 78v-2q12 25 26 25q29 0 71 -47t42 -80q0 -21 -8 -29z" />
<glyph glyph-name="Adieresis" unicode="&#xc4;" horiz-adv-x="1388" d="M98 57l570 1377q18 33 108 32q74 0 88 -30l471 -1383h-2q6 -12 6 -18q0 -55 -88 -55q-100 0 -121 47l-126 405h-529l-78 -190q-66 -156 -75 -183q-47 -82 -107 -82q-45 0 -81 26.5t-36 53.5zM934 627l-186 479l-89 -213l-108 -266h383zM471 1677v13q0 47 30.5 77.5 t78.5 30.5h12q45 0 74.5 -30.5t29.5 -77.5v-13q0 -45 -29.5 -75.5t-74.5 -30.5h-12q-47 0 -78 30.5t-31 75.5zM823 1677v13q0 47 31 77.5t78 30.5h12q45 0 75 -30.5t30 -77.5v-13q0 -47 -30 -76.5t-75 -29.5h-12q-47 0 -78 30.5t-31 75.5z" />
<glyph glyph-name="Aring" unicode="&#xc5;" horiz-adv-x="1345" d="M74 57l569 1377q18 33 109 32q74 0 88 -30l471 -1383h-2q6 -12 6 -18q0 -55 -88 -55q-100 0 -121 47l-127 405h-528l-78 -190q-66 -156 -76 -183q-47 -82 -107 -82q-45 0 -80.5 26.5t-35.5 53.5zM487 1792q0 109 76 184.5t184.5 75.5t184.5 -75.5t76 -184.5t-76 -183.5 t-184.5 -74.5t-184.5 76t-76 182zM874 717l-151 389l-88 -213l-109 -266h383zM645 1792q0 -41 31 -70.5t74 -29.5q41 0 72.5 30.5t31.5 69.5q0 43 -31.5 73.5t-72.5 30.5q-43 0 -74 -30.5t-31 -73.5z" />
<glyph glyph-name="AE" unicode="&#xc6;" horiz-adv-x="2068" d="M1276 1266v-400h539q66 0 65 -90q0 -41 -17.5 -75.5t-41.5 -34.5l-545 -2v-482q0 -12 270 -12l375 10q55 0 55 -90q0 -45 -15 -76.5t-40 -31.5h-29q-8 0 -34.5 -1t-45.5 -1q-193 -4 -372 -5q-334 0 -350 45l-68 209l-66 203h-528q-70 -174 -78 -190l-74 -185 q-41 -78 -100 -77q-47 0 -77.5 18t-39 33.5t-8.5 25.5l570 1381q41 29 92 28q23 0 47 -6t39 -11l14 -5l258 -754v686q0 84 453 84q113 0 264 -4q51 -2 133 -2q35 -16 35 -113q0 -66 -33 -65q-203 2 -389 2q-258 0 -258 -12zM852 717l-152 389l-88 -213l-108 -266h383z" />
<glyph glyph-name="Ccedilla" unicode="&#xc7;" horiz-adv-x="1230" d="M1030 1139q-16 0 -24 14l2 -2q-51 57 -112.5 81.5t-158.5 24.5q-182 0 -313 -158.5t-131 -379.5t131 -380t313 -159q160 0 275 109h-2q6 6 22 6q31 0 60.5 -46t29.5 -87q0 -72 -126 -127t-259 -55h-18q0 -2 2 -7.5t2 -7.5q2 -6 2 -11v-9q82 -29 82 -97 q0 -66 -62.5 -113.5t-126 -65t-104.5 -17.5q-20 0 -42.5 37t-22.5 59q0 27 59 35q117 28 133 54q4 7 4 16q0 16 -25.5 36.5t-52.5 31.5l-26 11l4 78q-199 70 -326 265.5t-127 443.5q0 307 188.5 522t456.5 215q133 0 252 -64.5t119 -115.5q0 -27 -27.5 -82t-50.5 -55z" />
<glyph glyph-name="Egrave" unicode="&#xc8;" horiz-adv-x="1073" d="M283 866h538q66 0 66 -90q0 -41 -17.5 -75.5t-42.5 -34.5l-544 -2v-482q0 -12 270 -12l375 10q55 0 55 -90q0 -45 -15.5 -76.5t-39.5 -31.5q-55 0 -103 -2q-8 0 -28.5 -1.5t-32.5 -1.5q-139 -4 -254 -4q-430 0 -430 74l-2 1329q0 84 452 84q113 0 265 -4q51 -2 133 -2 q35 -16 35 -113q0 -66 -33 -65q-203 2 -389 2q-258 0 -258 -12v-400zM631 1548l-344 142q-31 20 -31 53q0 37 46 87t60 44l302 -156q53 -29 53 -73q0 -37 -31.5 -67t-54.5 -30z" />
<glyph glyph-name="Eacute" unicode="&#xc9;" horiz-adv-x="1087" d="M297 866h539q66 0 65 -90q0 -41 -17.5 -75.5t-41.5 -34.5l-545 -2v-482q0 -12 270 -12l375 10q55 0 55 -90q0 -45 -15 -76.5t-40 -31.5q-55 0 -102 -2q-8 0 -28.5 -1.5t-33.5 -1.5q-139 -4 -254 -4q-430 0 -430 74l-2 1329q0 84 453 84q113 0 264 -4q51 -2 133 -2 q35 -16 35 -113q0 -66 -33 -65q-203 2 -389 2q-258 0 -258 -12v-400zM885 1694l-348 -146q-23 0 -54.5 30t-31.5 67q0 45 53 73l301 156q14 6 60 -44t46 -87q1 -24 -26 -49z" />
<glyph glyph-name="Ecircumflex" unicode="&#xca;" horiz-adv-x="1067" d="M293 866h538q66 0 66 -90q0 -41 -17.5 -75.5t-41.5 -34.5l-545 -2v-482q0 -12 270 -12l375 10q55 0 55 -90q0 -45 -15 -76.5t-40 -31.5q-55 0 -102 -2q-8 0 -29 -1.5t-33 -1.5q-139 -4 -254 -4q-430 0 -430 74l-2 1329q0 84 453 84q113 0 264 -4q51 -2 133 -2 q35 -16 35 -113q0 -66 -33 -65q-203 2 -389 2q-258 0 -258 -12v-400zM559 1878h25l272 -149q14 -12 14 -39q0 -37 -38.5 -77t-55.5 -36l-219 125l-115 -60l-123 -65q-16 -4 -47.5 37t-31.5 76q0 31 14 43l268 139q12 6 37 6z" />
<glyph glyph-name="Edieresis" unicode="&#xcb;" horiz-adv-x="1060" d="M279 866h538q66 0 66 -90q0 -41 -17.5 -75.5t-42.5 -34.5l-544 -2v-482q0 -12 270 -12l375 10q55 0 55 -90q0 -45 -15.5 -76.5t-39.5 -31.5q-55 0 -103 -2q-8 0 -28.5 -1.5t-32.5 -1.5q-139 -4 -254 -4q-430 0 -430 74l-2 1329q0 84 452 84q113 0 265 -4q51 -2 133 -2 q35 -16 34 -113q0 -66 -32 -65q-203 2 -389 2q-258 0 -258 -12v-400zM217 1677v13q0 47 31 77.5t78 30.5h12q45 0 74.5 -30.5t29.5 -77.5v-13q0 -45 -29.5 -75.5t-74.5 -30.5h-12q-47 0 -78 30.5t-31 75.5zM569 1677v13q0 47 31 77.5t78 30.5h12q45 0 75 -30.5t30 -77.5v-13 q0 -47 -30 -76.5t-75 -29.5h-12q-47 0 -78 30.5t-31 75.5z" />
<glyph glyph-name="Igrave" unicode="&#xcc;" horiz-adv-x="454" d="M328 1423l2 -1392q0 -27 -31 -43.5t-70 -16.5q-41 0 -69.5 14.5t-28.5 37.5l-2 1396q0 14 40 32.5t79 18.5q74 0 80 -47zM311 1548l-344 142q-31 20 -30 53q0 37 46 87t60 44l301 -156q53 -29 53 -73q0 -37 -31.5 -67t-54.5 -30z" />
<glyph glyph-name="Iacute" unicode="&#xcd;" horiz-adv-x="559" d="M600 1694l-348 -146q-23 0 -54.5 30t-31.5 67q0 45 53 73l301 156q14 6 60.5 -44t46.5 -87q0 -24 -27 -49zM371 1423l2 -1392q0 -27 -31 -43.5t-70 -16.5q-41 0 -69.5 14.5t-28.5 37.5l-2 1396q0 14 40 32.5t79 18.5q74 0 80 -47z" />
<glyph glyph-name="Icircumflex" unicode="&#xce;" horiz-adv-x="696" d="M455 1423l2 -1392q0 -27 -31 -43.5t-70 -16.5q-41 0 -69.5 14.5t-28.5 37.5l-2 1396q0 14 40 32.5t79 18.5q74 0 80 -47zM373 1878h24l273 -149q14 -12 14 -39q0 -37 -39 -77t-55 -36l-219 125l-115 -60l-123 -65q-16 -4 -48 37t-32 76q0 31 15 43l268 139q12 6 37 6z " />
<glyph glyph-name="Idieresis" unicode="&#xcf;" horiz-adv-x="608" d="M412 1423l2 -1392q0 -27 -31 -43.5t-70 -16.5q-41 0 -69.5 14.5t-28.5 37.5l-2 1396q0 14 40 32.5t79 18.5q74 0 80 -47zM29 1677v13q0 47 30.5 77.5t77.5 30.5h13q45 0 74.5 -30.5t29.5 -77.5v-13q0 -45 -29.5 -75.5t-74.5 -30.5h-13q-47 0 -77.5 30.5t-30.5 75.5z M381 1677v13q0 47 30.5 77.5t77.5 30.5h13q45 0 74.5 -30.5t29.5 -77.5v-13q0 -47 -29.5 -76.5t-74.5 -29.5h-13q-47 0 -77.5 30.5t-30.5 75.5z" />
<glyph glyph-name="Eth" unicode="&#xd0;" horiz-adv-x="1411" d="M256 641h-141q-29 0 -44.5 30.5t-15.5 73.5q0 39 14.5 70t36.5 31h150v561q0 18 123 32.5t180 14.5q399 0 585.5 -187.5t186.5 -549.5q0 -383 -177 -560t-601 -177h-82q-10 0 -30.5 -1.5t-30.5 -1.5q-152 0 -152 35zM457 1264v-418h188q33 0 99.5 1t101.5 1 q14 0 32.5 -42t18.5 -81q0 -76 -47 -82l-393 -2v-238q0 -41 1 -119.5t1 -119.5h73h25q283 0 428 132t145 421q0 551 -552 551q-80 0 -121 -4z" />
<glyph glyph-name="Ntilde" unicode="&#xd1;" horiz-adv-x="1376" d="M1233 1401l2 -1352q0 -39 -35 -57.5t-82 -18.5q-59 0 -78 23l-753 1071v-1047q0 -18 -35 -32.5t-76 -14.5q-94 0 -94 58v1353q0 33 31.5 52.5t76.5 19.5q70 0 99 -41l741 -1050v1038q0 16 41 35.5t80 19.5q82 0 82 -57zM997 1671h-2q-82 -109 -196 -108q-45 0 -152 49 q-90 41 -110 41q-25 0 -45.5 -10.5t-28.5 -20.5l-8 -10q-25 -12 -29 -13q-31 0 -64.5 49.5t-33.5 84.5q0 23 26 49v-6q57 47 129 47q96 0 217 -78q33 -18 56 -19q57 0 110 78v-2q12 25 27 25q29 0 71 -47t42 -80q-1 -21 -9 -29z" />
<glyph glyph-name="Ograve" unicode="&#xd2;" horiz-adv-x="1335" d="M76 721q0 309 174 533.5t418 224.5q180 0 316 -104.5t206 -275.5t70 -378q0 -311 -173.5 -538.5t-418.5 -227.5q-244 0 -418 227.5t-174 538.5zM279 756v-4q-2 -18 -3 -52q0 -213 123 -379.5t279 -166.5q158 0 269.5 178t111.5 416q0 213 -110.5 371.5t-266.5 158.5 q-145 0 -261.5 -156.5t-141.5 -365.5zM774 1548l-344 142q-31 20 -31 53q0 37 46.5 87t60.5 44l301 -156q53 -29 53 -73q0 -37 -31.5 -67t-54.5 -30z" />
<glyph glyph-name="Oacute" unicode="&#xd3;" horiz-adv-x="1355" d="M102 721q0 309 174.5 533.5t417.5 224.5q180 0 316.5 -104.5t206 -275.5t69.5 -378q0 -311 -173 -538.5t-419 -227.5q-244 0 -418 227.5t-174 538.5zM305 756v-4q-2 -18 -2 -52q0 -213 123 -379.5t279 -166.5q158 0 269 178t111 416q0 213 -110.5 371.5t-265.5 158.5 q-145 0 -262 -156.5t-142 -365.5zM999 1694l-348 -146q-23 0 -54.5 30t-31.5 67q0 45 53 73l302 156q14 6 60 -44t46 -87q0 -24 -27 -49z" />
<glyph glyph-name="Ocircumflex" unicode="&#xd4;" horiz-adv-x="1370" d="M88 721q0 309 174 533.5t418 224.5q180 0 316.5 -104.5t206 -275.5t69.5 -378q0 -311 -173 -538.5t-419 -227.5q-244 0 -418 227.5t-174 538.5zM291 756v-4q-2 -18 -2 -52q0 -213 123 -379.5t278 -166.5q158 0 269.5 178t111.5 416q0 213 -110.5 371.5t-266.5 158.5 q-145 0 -261.5 -156.5t-141.5 -365.5zM700 1878h25l272 -149q14 -12 15 -39q0 -37 -39 -77t-55 -36l-220 125l-114 -60l-123 -65q-16 -4 -48 37t-32 76q0 31 14 43l269 139q11 6 36 6z" />
<glyph glyph-name="Otilde" unicode="&#xd5;" horiz-adv-x="1349" d="M80 721q0 309 174 533.5t418 224.5q180 0 316 -104.5t206 -275.5t70 -378q0 -311 -173 -538.5t-419 -227.5q-244 0 -418 227.5t-174 538.5zM283 756v-4q-2 -18 -2 -52q0 -213 122.5 -379.5t278.5 -166.5q158 0 269.5 178t111.5 416q0 213 -110.5 371.5t-266.5 158.5 q-145 0 -261.5 -156.5t-141.5 -365.5zM1012 1671h-2q-82 -109 -197 -108q-45 0 -151 49q-90 41 -111 41q-25 0 -45.5 -10.5t-28.5 -20.5l-8 -10q-25 -12 -29 -13q-31 0 -64.5 49.5t-33.5 84.5q0 23 27 49v-6q57 47 129 47q96 0 217 -78q33 -18 55 -19q57 0 111 78v-2 q12 25 26 25q29 0 71 -47t42 -80q0 -21 -8 -29z" />
<glyph glyph-name="Odieresis" unicode="&#xd6;" horiz-adv-x="1349" d="M94 721q0 309 174 533.5t418 224.5q180 0 316.5 -104.5t206 -275.5t69.5 -378q0 -311 -173 -538.5t-419 -227.5q-244 0 -418 227.5t-174 538.5zM297 756v-4q-2 -18 -2 -52q0 -213 123 -379.5t278 -166.5q158 0 269.5 178t111.5 416q0 213 -110.5 371.5t-266.5 158.5 q-145 0 -261.5 -156.5t-141.5 -365.5zM422 1677v13q0 47 30.5 77.5t77.5 30.5h13q45 0 74.5 -30.5t29.5 -77.5v-13q0 -45 -29.5 -75.5t-74.5 -30.5h-13q-47 0 -77.5 30.5t-30.5 75.5zM774 1677v13q0 47 31 77.5t78 30.5h12q45 0 74.5 -30.5t29.5 -77.5v-13 q0 -47 -29.5 -76.5t-74.5 -29.5h-12q-47 0 -78 30.5t-31 75.5z" />
<glyph glyph-name="multiply" unicode="&#xd7;" horiz-adv-x="929" d="M623 715l174 -174q2 -2 6 -9.5t4 -9.5l10 -26q0 -37 -47 -82t-80 -45q-20 0 -26 12v-4l-189 188l-98 -98l-105 -107q-6 -6 -22 -6q-27 0 -81 42t-54 79q0 6 12 31l203 207l-213 213q0 27 44 85t79 58q14 0 41 -16l194 -191l84 84l43 42l51 50q14 14 35 15q37 0 83 -47.5 t46 -79.5q0 -16 -10 -27z" />
<glyph glyph-name="Oslash" unicode="&#xd8;" horiz-adv-x="1431" d="M965 1118l-375 -928q45 -12 74 -12q168 0 291.5 165t123.5 398q1 225 -114 377zM418 305l379 938q-47 12 -86 12q-166 0 -290 -170t-124 -403q0 -225 121 -377zM510 2l-55 -129q-12 -31 -56 -31q-41 0 -89 30t-48 56l2 15l74 170q-111 102 -176.5 260.5t-65.5 339.5 q0 307 173 523t419 216q102 0 182 -33q12 20 25 45q6 10 14.5 28.5t14.5 29.5q10 18 43 18q51 0 95 -24.5t44 -69.5l-68 -137q111 -102 176.5 -260t65.5 -336q0 -309 -172 -525.5t-420 -216.5q-92 0 -178 31z" />
<glyph glyph-name="Ugrave" unicode="&#xd9;" horiz-adv-x="1382" d="M700 -45h-6q-258 2 -426 157.5t-168 409.5v889q0 14 43 31.5t84 17.5q76 0 76 -49v-899q0 -160 118 -259t279 -103q152 2 246 113.5t94 252.5l2 889q0 49 74 49q41 0 85 -17.5t44 -31.5v-881q0 -242 -151.5 -402.5t-393.5 -166.5zM836 1548l-344 142q-31 20 -31 53 q0 37 46 87t60 44l301 -156q53 -29 54 -73q0 -37 -31.5 -67t-54.5 -30z" />
<glyph glyph-name="Uacute" unicode="&#xda;" horiz-adv-x="1396" d="M700 -45h-6q-258 2 -426 157.5t-168 409.5v889q0 14 43 31.5t84 17.5q76 0 76 -49v-899q0 -160 118 -259t279 -103q152 2 246 113.5t94 252.5l2 889q0 49 74 49q41 0 85 -17.5t44 -31.5v-881q0 -242 -151.5 -402.5t-393.5 -166.5zM993 1694l-348 -146q-23 0 -54.5 30 t-31.5 67q0 45 53 73l301 156q14 6 60.5 -44t46.5 -87q0 -24 -27 -49z" />
<glyph glyph-name="Ucircumflex" unicode="&#xdb;" horiz-adv-x="1335" d="M700 -45h-6q-258 2 -426 157.5t-168 409.5v889q0 14 43 31.5t84 17.5q76 0 76 -49v-899q0 -160 118 -259t279 -103q152 2 246 113.5t94 252.5l2 889q0 49 74 49q41 0 85 -17.5t44 -31.5v-881q0 -242 -151.5 -402.5t-393.5 -166.5zM690 1878h25l272 -149q14 -12 14 -39 q0 -37 -38.5 -77t-55.5 -36l-219 125l-115 -60l-122 -65q-16 -4 -48 37t-32 76q0 31 14 43l268 139q12 6 37 6z" />
<glyph glyph-name="Udieresis" unicode="&#xdc;" horiz-adv-x="1382" d="M383 1677v13q0 47 31.5 77.5t77.5 30.5h12q45 0 74.5 -30.5t29.5 -77.5v-13q0 -45 -29.5 -75.5t-74.5 -30.5h-12q-47 0 -78 30.5t-31 75.5zM817 1677v13q0 47 32 77.5t77 30.5h12q45 0 74.5 -30.5t29.5 -77.5v-13q0 -47 -29.5 -76.5t-74.5 -29.5h-12q-47 0 -78 30.5 t-31 75.5zM729 -18h-6q-262 2 -428 145t-166 395v889q0 14 43 31.5t84 17.5q76 0 76 -49v-899q0 -158 115.5 -245t281.5 -91q154 2 247 103.5t93 236.5l2 889q0 49 74 49q41 0 85 -17.5t44 -31.5v-881q0 -240 -150.5 -388t-394.5 -154z" />
<glyph glyph-name="Yacute" unicode="&#xdd;" horiz-adv-x="1259" d="M440 -4v657l-209 342l-213 351q-6 16 50.5 64t93.5 48q23 0 39 -20l344 -578l235 281l248 293q16 16 35 16q35 0 83 -61.5t44 -79.5l-545 -645v-674q-72 -14 -119 -14t-86 20zM899 1694l-348 -146q-23 0 -54.5 30t-31.5 67q0 45 53 73l301 156q14 6 60.5 -44t46.5 -87 q0 -24 -27 -49z" />
<glyph glyph-name="Thorn" unicode="&#xde;" horiz-adv-x="1128" d="M221 1419q72 0 78 -47l2 -477q137 119 287 119q160 0 268.5 -129t108.5 -324q0 -276 -147.5 -427.5t-379.5 -151.5q-78 0 -135 34q0 -31 -1 -91t-1 -89v-201q0 -27 -29.5 -43t-68.5 -16t-66.5 13.5t-27.5 37.5l-3 1741q0 14 39 32.5t76 18.5zM307 707l-4 -449 q72 -84 201 -84q102 0 179 91t77 233q0 145 -53.5 229t-149.5 84q-57 0 -119.5 -26.5t-96.5 -52.5z" />
<glyph glyph-name="germandbls" unicode="&#xdf;" horiz-adv-x="1036" d="M487 918q166 55 166 208q0 170 -219 170l-143 -18q0 -53 -2 -155.5t-2 -155.5q-4 -209 -4 -316q-4 -215 -9 -641q0 -33 -71 -33q-51 0 -91 16.5t-40 53.5v328q0 53 1 163.5t1 166.5q2 223 2 681q10 8 31.5 21.5t119 36t228.5 22.5q111 0 192.5 -31.5t123.5 -84 t61.5 -106.5t19.5 -109q0 -78 -30.5 -167t-92.5 -141q94 -45 172 -140t78 -253q0 -217 -127 -337t-348 -124q-20 0 -33.5 27t-13.5 66q0 37 12 64.5t33 29.5q115 0 190.5 64.5t75.5 203.5q0 147 -102.5 215t-225.5 68q-35 0 -47 18.5t-12 67.5t17.5 81.5t39.5 32.5 q6 -2 8 -2q18 1 41 9z" />
<glyph glyph-name="agrave" unicode="&#xe0;" horiz-adv-x="935" d="M782 555q-2 -43 -10 -113q-12 -102 -12 -153q0 -176 137 -262q-98 -72 -172 -72q-78 0 -129 72q-154 -74 -258 -74q-113 0 -205 81t-92 255q0 145 130 234t298 89q68 0 127 -14v20q0 4 1 10.5t1 8.5q0 195 -106 199q-135 -4 -267 -58q-29 0 -51 49.5t-22 83.5 q0 47 100 78t194 31q63 0 103.5 -4t89.5 -24.5t77.5 -59.5t48 -113t19.5 -178q0 -57 -2 -86zM334 139q8 -2 24 -2q78 0 215 58q2 2 11 6q-2 2 -2 4q-2 14 -2 49q0 25 4 102v13q4 49 4 73q-41 6 -119 7q-223 0 -233 -160q4 -138 98 -150zM580 1114l-344 141q-31 20 -31 54 q0 37 46 87t60 44l301 -156q53 -29 54 -74q0 -37 -31.5 -66.5t-54.5 -29.5z" />
<glyph glyph-name="aacute" unicode="&#xe1;" horiz-adv-x="933" d="M797 555q-2 -43 -11 -113q-12 -102 -12 -153q0 -176 137 -262q-98 -72 -172 -72q-78 0 -129 72q-154 -74 -258 -74q-113 0 -205 81t-92 255q0 145 130 234t298 89q68 0 127 -14v20q0 4 1 10.5t1 8.5q0 195 -106 199q-135 -4 -266 -58q-29 0 -51.5 49.5t-22.5 83.5 q0 47 100.5 78t194.5 31q63 0 103 -4t89 -24.5t78 -59.5t48.5 -113t19.5 -178q0 -57 -2 -86zM348 139q8 -2 25 -2q78 0 215 58q2 2 10 6q-2 2 -2 4q-2 14 -2 49q0 25 4 102v13q4 49 4 73q-41 6 -119 7q-223 0 -233 -160q4 -138 98 -150zM784 1260l-348 -146q-23 0 -54.5 30 t-31.5 66q0 45 53 74l302 156q14 6 60 -44t46 -87q0 -24 -27 -49z" />
<glyph glyph-name="acircumflex" unicode="&#xe2;" horiz-adv-x="962" d="M805 555q-2 -43 -10 -113q-12 -102 -13 -153q0 -176 138 -262q-98 -72 -172 -72q-78 0 -130 72q-154 -74 -258 -74q-113 0 -205 81t-92 255q0 145 130.5 234t298.5 89q68 0 126 -14v20q0 4 1.5 10.5t1.5 8.5q0 195 -107 199q-135 -4 -266 -58q-29 0 -51.5 49.5 t-22.5 83.5q0 47 100.5 78t194.5 31q63 0 103 -4t89.5 -24.5t78 -59.5t48 -113t19.5 -178q0 -57 -2 -86zM356 139q8 -2 25 -2q78 0 215 58q2 2 10 6q-2 2 -2 4q-2 14 -2 49q0 25 4 102v13q4 49 4 73q-41 6 -118 7q-223 0 -234 -160q4 -138 98 -150zM494 1444h24l273 -150 q14 -12 14 -39q0 -37 -39 -76.5t-55 -35.5l-219 125l-115 -60l-123 -65q-16 -4 -48 37t-32 75q0 31 14 43l269 140q12 6 37 6z" />
<glyph glyph-name="atilde" unicode="&#xe3;" horiz-adv-x="950" d="M801 555q-2 -43 -10 -113q-12 -102 -13 -153q0 -176 137 -262q-98 -72 -172 -72q-78 0 -129 72q-154 -74 -258 -74q-113 0 -205 81t-92 255q0 145 130 234t298 89q68 0 127 -14v20q0 4 1 10.5t1 8.5q0 195 -106 199q-135 -4 -266 -58q-29 0 -51.5 49.5t-22.5 83.5 q0 47 100.5 78t194.5 31q63 0 103 -4t89.5 -24.5t78 -59.5t48 -113t19.5 -178q0 -57 -2 -86zM352 139q8 -2 25 -2q78 0 215 58q2 2 10 6q-2 2 -2 4q-2 14 -2 49q0 25 4 102v13q4 49 4 73q-41 6 -119 7q-223 0 -233 -160q4 -138 98 -150zM834 1237h-3q-82 -109 -196 -109 q-45 0 -152 50q-90 41 -110 41q-25 0 -45.5 -10.5t-28.5 -20.5l-8 -10q-25 -12 -29 -13q-31 0 -64.5 49.5t-33.5 83.5q0 23 26 50v-7q57 47 129 48q96 0 218 -78q33 -18 55 -19q57 0 110 78v-2q12 25 27 25q29 0 71 -47.5t42 -79.5q0 -21 -8 -29z" />
<glyph glyph-name="adieresis" unicode="&#xe4;" horiz-adv-x="940" d="M803 555q-2 -43 -10 -113q-12 -102 -13 -153q0 -176 138 -262q-98 -72 -173 -72q-78 0 -129 72q-154 -74 -258 -74q-113 0 -205 81t-92 255q0 145 130.5 234t297.5 89q68 0 127 -14v20q0 4 1 10.5t1 8.5q0 195 -106 199q-135 -4 -266 -58q-29 0 -51.5 49.5t-22.5 83.5 q0 47 100.5 78t194.5 31q63 0 103 -4t89.5 -24.5t78 -59.5t48 -113t19.5 -178q0 -57 -2 -86zM354 139q8 -2 25 -2q78 0 215 58q2 2 10 6q-2 2 -2 4q-2 14 -2 49q0 25 4 102v13q4 49 4 73q-41 6 -119 7q-223 0 -233 -160q4 -138 98 -150zM205 1243v12q0 47 30.5 78t77.5 31 h13q45 0 74.5 -30.5t29.5 -78.5v-12q0 -45 -29.5 -75.5t-74.5 -30.5h-13q-47 0 -77.5 30.5t-30.5 75.5zM557 1243v12q0 47 30.5 78t78.5 31h12q45 0 74.5 -30.5t29.5 -78.5v-12q0 -47 -29.5 -76.5t-74.5 -29.5h-12q-47 0 -78 30.5t-31 75.5z" />
<glyph glyph-name="aring" unicode="&#xe5;" horiz-adv-x="925" d="M416 1356q0 -41 30.5 -71t73.5 -30q41 0 73 31t32 70q0 43 -32 73.5t-73 30.5q-43 0 -73.5 -30.5t-30.5 -73.5zM258 1356q0 109 76 184.5t184.5 75.5t184 -76t75.5 -184.5t-75.5 -183t-184 -74.5t-184.5 76t-76 182zM786 555q-2 -43 -10 -113q-12 -102 -12 -153 q0 -176 137 -262q-98 -72 -172 -72q-78 0 -129 72q-154 -74 -258 -74q-113 0 -205 81t-92 255q0 145 130 234t298 89q68 0 127 -14v20q0 4 1 10.5t1 8.5q0 195 -106 199q-135 -4 -267 -58q-29 0 -51 49.5t-22 83.5q0 47 100 78t195 31q63 0 103 -4t89 -24.5t78 -59.5 t48 -113t19 -178q0 -57 -2 -86zM338 139q8 -2 24 -2q78 0 216 58q2 2 10 6q-2 2 -2 4q-2 14 -2 49q0 25 4 102v13q4 49 4 73q-41 6 -119 7q-223 0 -233 -160q4 -138 98 -150z" />
<glyph glyph-name="ae" unicode="&#xe6;" horiz-adv-x="1576" d="M197 987l12 8v-4q8 8 33 15q174 47 303 47q186 0 239 -127q131 109 314 108q190 0 306 -87t116 -279q0 -203 -144 -203h-553q39 -303 269 -303q162 0 256 47q41 25 55 24q72 0 72 -149q0 -55 -145.5 -82t-268.5 -27h-10q-102 4 -165 33t-130 105q-248 -141 -398 -142 q-117 0 -210 78t-93 252q0 147 127 238.5t299 91.5q70 0 140 -17q12 49 12 103q0 139 -103 139q-61 0 -134.5 -12.5t-117.5 -25.5l-45 -13q-45 61 -45 121zM588 299q0 96 14 164h-8q-57 8 -119 8q-92 0 -159.5 -41t-67.5 -127q0 -80 39 -118t104 -38q100 0 201 48 q-4 49 -4 104zM854 635l432 -6q29 12 29 84q0 129 -209 129q-80 0 -157 -64.5t-95 -142.5z" />
<glyph glyph-name="ccedilla" unicode="&#xe7;" horiz-adv-x="964" d="M803 784l-17 2q-57 55 -221 56q-121 0 -208 -96.5t-87 -231.5q0 -137 87 -234.5t208 -97.5q74 0 120 16.5t106 65.5l14 2q27 0 58.5 -42t31.5 -81q0 -61 -96.5 -108t-188.5 -55v-11q82 -27 82 -98q0 -66 -62.5 -114t-126 -65.5t-104.5 -17.5q-20 0 -42.5 37t-22.5 60 q0 27 59 34q117 28 133 55q4 7 4 15q0 16 -25.5 36.5t-51.5 32.5l-27 11l4 45q-162 49 -263 191.5t-101 328.5q0 221 146 364.5t359 143.5q102 0 176 -16.5t138 -71.5v-27q0 -102 -82 -129z" />
<glyph glyph-name="egrave" unicode="&#xe8;" horiz-adv-x="980" d="M870 514q-6 -72 -344 -72l-260 7q8 -156 90 -231t205 -75q92 0 211 43q1 0 5 1t5 1q31 0 55.5 -47t24.5 -86q0 -55 -113.5 -77.5t-238.5 -22.5q-242 0 -348.5 158.5t-106.5 410.5q0 229 106.5 363.5t311.5 134.5q227 0 315.5 -90t88.5 -289q-1 -58 -7 -129zM477 852 q-104 0 -153.5 -67.5t-55.5 -166.5q4 0 19.5 -1t27.5 -1q55 -2 211 -2q152 0 152 -6q0 61 -2 90t-11.5 66t-31 51t-59.5 25.5t-97 11.5zM594 1114l-344 141q-31 20 -31 54q0 37 46 87t61 44l301 -156q53 -29 53 -74q0 -37 -31.5 -66.5t-54.5 -29.5z" />
<glyph glyph-name="eacute" unicode="&#xe9;" horiz-adv-x="954" d="M852 514q-4 -72 -344 -72l-260 7q8 -156 90 -231t205 -75q92 0 211 43l4 1q4 1 6 1q31 0 55.5 -47t24.5 -86q0 -55 -114 -77.5t-238 -22.5q-242 0 -348.5 158.5t-106.5 410.5q0 229 106.5 363.5t311.5 134.5q227 0 315 -90t88 -289q0 -58 -6 -129zM459 852 q-104 0 -153.5 -67.5t-55.5 -166.5q4 0 19.5 -1t27.5 -1q55 -2 211 -2q152 0 151 -6q0 61 -2 90t-11 66t-30.5 51t-59.5 25.5t-97 11.5zM754 1260l-348 -146q-23 0 -55 30t-32 66q0 45 54 74l301 156q14 6 60 -44t46 -87q1 -24 -26 -49z" />
<glyph glyph-name="ecircumflex" unicode="&#xea;" horiz-adv-x="989" d="M877 514q-4 -72 -345 -72l-260 7q8 -156 90 -231t205 -75q92 0 211 43l4 1q4 1 6 1q31 0 55.5 -47t24.5 -86q0 -55 -113.5 -77.5t-238.5 -22.5q-242 0 -348.5 158.5t-106.5 410.5q0 229 106.5 363.5t311.5 134.5q227 0 315.5 -90t88.5 -289q0 -58 -6 -129zM483 852 q-104 0 -153 -67.5t-56 -166.5q4 0 19.5 -1t28.5 -1q55 -2 210 -2q152 0 152 -6q0 61 -2 90t-11 66t-31 51t-60 25.5t-97 11.5zM518 1444h25l272 -150q14 -12 14 -39q0 -37 -38.5 -76.5t-55.5 -35.5l-219 125l-115 -60l-122 -65q-16 -4 -48 37t-32 75q0 31 14 43l268 140 q12 6 37 6z" />
<glyph glyph-name="edieresis" unicode="&#xeb;" horiz-adv-x="976" d="M877 514q-4 -72 -345 -72l-260 7q8 -156 90 -231t205 -75q92 0 211 43l4 1q4 1 6 1q31 0 55.5 -47t24.5 -86q0 -55 -113.5 -77.5t-238.5 -22.5q-242 0 -348.5 158.5t-106.5 410.5q0 229 106.5 363.5t311.5 134.5q227 0 315.5 -90t88.5 -289q0 -58 -6 -129zM483 852 q-104 0 -153 -67.5t-56 -166.5q4 0 19.5 -1t28.5 -1q55 -2 210 -2q152 0 152 -6q0 61 -2 90t-11 66t-31 51t-60 25.5t-97 11.5zM219 1243v12q0 47 32 78t77 31h12q45 0 74.5 -30.5t29.5 -78.5v-12q0 -45 -29.5 -75.5t-74.5 -30.5h-12q-47 0 -78 30.5t-31 75.5zM571 1243v12 q0 47 32 78t77 31h12q45 0 75 -30.5t30 -78.5v-12q0 -47 -30 -76.5t-75 -29.5h-12q-47 0 -78 30.5t-31 75.5z" />
<glyph glyph-name="igrave" unicode="&#xec;" horiz-adv-x="559" d="M397 987l2 -954q0 -27 -31.5 -43.5t-72.5 -16.5t-70.5 13.5t-29.5 38.5l-2 958q0 14 41.5 32.5t80.5 18.5q76 0 82 -47zM395 1114l-344 141q-31 20 -31 54q0 37 46.5 87t60.5 44l301 -156q53 -29 53 -74q0 -37 -31.5 -66.5t-54.5 -29.5z" />
<glyph glyph-name="iacute" unicode="&#xed;" horiz-adv-x="530" d="M356 987l2 -954q0 -27 -31.5 -43.5t-72.5 -16.5t-70.5 13.5t-29.5 38.5l-2 958q0 14 42 32.5t80 18.5q76 0 82 -47zM494 1260l-349 -146q-23 0 -54.5 30t-31.5 66q0 45 54 74l301 156q14 6 60 -44t46 -87q1 -24 -26 -49z" />
<glyph glyph-name="icircumflex" unicode="&#xee;" horiz-adv-x="700" d="M455 987l2 -954q0 -27 -33 -43.5t-72 -16.5q-41 0 -70.5 13.5t-29.5 38.5l-2 958q0 14 42 32.5t81 18.5q76 0 82 -47zM354 1444h25l272 -150q14 -12 15 -39q0 -37 -39 -76.5t-56 -35.5l-219 125l-114 -60l-123 -65q-16 -4 -48 37t-32 75q0 31 14 43l268 140q12 6 37 6z " />
<glyph glyph-name="idieresis" unicode="&#xef;" horiz-adv-x="575" d="M375 987l2 -954q0 -27 -32 -43.5t-73 -16.5t-70.5 13.5t-29.5 38.5l-2 958q0 14 42 32.5t81 18.5q76 0 82 -47zM29 1243v12q0 47 30.5 78t77.5 31h13q45 0 74.5 -30.5t29.5 -78.5v-12q0 -45 -29.5 -75.5t-74.5 -30.5h-13q-47 0 -77.5 30.5t-30.5 75.5zM326 1243v12 q0 47 31.5 78t76.5 31h12q45 0 75 -30.5t30 -78.5v-12q0 -47 -29.5 -76.5t-75.5 -29.5h-12q-47 0 -77.5 30.5t-30.5 75.5z" />
<glyph glyph-name="eth" unicode="&#xf0;" horiz-adv-x="1153" d="M453 969q-3 -1 -7 -2q-31 0 -50 35.5t-19 74.5t12 52.5t47 13.5q137 0 203 20q-2 4 -2 11q-4 4 -4 8q-14 29 -22.5 42t-46.5 37.5t-97 38.5q-27 12 -27 39q0 33 35 78t60 45l18 -6l-2 2q74 -16 124 -39.5t78.5 -58.5t39 -53.5t28.5 -59.5l6 -24l2 -2q53 35 166 34 q98 0 99 -129q0 -47 -37 -47q-139 18 -162 -26q66 -184 66 -600q0 -229 -138.5 -358.5t-322.5 -129.5q-178 0 -306 116t-128 320q0 139 39.5 236.5t109.5 143.5t138.5 64.5t148.5 18.5q43 0 79.5 -6t51.5 -12l14 -6q43 -12 43 -103q0 -33 -17.5 -57.5t-45.5 -24.5 q0 2 -10.5 8.5t-44 12.5t-78.5 6q-98 0 -162 -89t-64 -202q0 -100 59.5 -177t172.5 -77q109 0 193.5 94.5t84.5 210.5q0 150 -12 288t-23.5 206t-15.5 65q-94 -32 -274 -32z" />
<glyph glyph-name="ntilde" unicode="&#xf1;" horiz-adv-x="1112" d="M315 0l-4 4q-20 -29 -98 -29q-43 0 -75 11.5t-32 29.5l3 940q37 45 124 45q35 0 55.5 -13t23.5 -26l3 -14v-69q113 141 289 141q66 0 120 -11.5t112.5 -49t97.5 -99t64.5 -170t25.5 -254.5l-4 -420q0 -41 -90 -41q-43 0 -80 11.5t-37 29.5v490q0 303 -233 303 q-66 0 -144 -35t-121 -100v-674zM883 1237h-2q-82 -109 -197 -109q-45 0 -152 50q-90 41 -110 41q-25 0 -45.5 -10.5t-28.5 -20.5l-8 -10q-25 -12 -29 -13q-31 0 -64.5 49.5t-33.5 83.5q0 23 27 50v-7q57 47 129 48q96 0 217 -78q33 -18 55 -19q57 0 111 78v-2q12 25 26 25 q29 0 71 -47.5t42 -79.5q0 -21 -8 -29z" />
<glyph glyph-name="ograve" unicode="&#xf2;" d="M285 508q0 -160 79.5 -261.5t213.5 -101.5q150 0 228.5 93.5t78.5 269.5q0 150 -90 238t-217 88q-121 0 -207 -95.5t-86 -230.5zM82 514q0 219 145.5 362.5t356.5 143.5t356 -143.5t145 -362.5q0 -266 -142 -412.5t-361 -146.5q-217 0 -358.5 148.5t-141.5 410.5z M684 1114l-344 141q-31 20 -31 54q0 37 46 87t61 44l301 -156q53 -29 53 -74q0 -37 -31.5 -66.5t-54.5 -29.5z" />
<glyph glyph-name="oacute" unicode="&#xf3;" d="M285 508q0 -160 79.5 -261.5t213.5 -101.5q150 0 228.5 93.5t78.5 269.5q0 150 -90 238t-217 88q-121 0 -207 -95.5t-86 -230.5zM82 514q0 219 145.5 362.5t356.5 143.5t356 -143.5t145 -362.5q0 -266 -142 -412.5t-361 -146.5q-217 0 -358.5 148.5t-141.5 410.5z M821 1260l-348 -146q-23 0 -54.5 30t-31.5 66q0 45 53 74l301 156q14 6 60.5 -44t46.5 -87q0 -24 -27 -49z" />
<glyph glyph-name="ocircumflex" unicode="&#xf4;" d="M285 508q0 -160 79.5 -261.5t213.5 -101.5q150 0 228.5 93.5t78.5 269.5q0 150 -90 238t-217 88q-121 0 -207 -95.5t-86 -230.5zM82 514q0 219 145.5 362.5t356.5 143.5t356 -143.5t145 -362.5q0 -266 -142 -412.5t-361 -146.5q-217 0 -358.5 148.5t-141.5 410.5z M598 1444h25l272 -150q14 -12 14 -39q0 -37 -39 -76.5t-55 -35.5l-219 125l-115 -60l-123 -65q-16 -4 -47.5 37t-31.5 75q0 31 14 43l268 140q12 6 37 6z" />
<glyph glyph-name="otilde" unicode="&#xf5;" d="M285 508q0 -160 79.5 -261.5t213.5 -101.5q150 0 228.5 93.5t78.5 269.5q0 150 -90 238t-217 88q-121 0 -207 -95.5t-86 -230.5zM82 514q0 219 145.5 362.5t356.5 143.5t356 -143.5t145 -362.5q0 -266 -142 -412.5t-361 -146.5q-217 0 -358.5 148.5t-141.5 410.5z M905 1237h-2q-82 -109 -196 -109q-45 0 -152 50q-90 41 -111 41q-25 0 -45 -10.5t-28 -20.5l-9 -10q-25 -12 -28 -13q-31 0 -64.5 49.5t-33.5 83.5q0 23 26 50v-7q57 47 129 48q96 0 217 -78q33 -18 56 -19q57 0 110 78v-2q12 25 27 25q29 0 70.5 -47.5t41.5 -79.5 q0 -21 -8 -29z" />
<glyph glyph-name="odieresis" unicode="&#xf6;" d="M285 508q0 -160 79.5 -261.5t213.5 -101.5q150 0 228.5 93.5t78.5 269.5q0 150 -90 238t-217 88q-121 0 -207 -95.5t-86 -230.5zM82 514q0 219 145.5 362.5t356.5 143.5t356 -143.5t145 -362.5q0 -266 -142 -412.5t-361 -146.5q-217 0 -358.5 148.5t-141.5 410.5z M301 1243v12q0 47 32 78t77 31h12q45 0 74.5 -30.5t29.5 -78.5v-12q0 -45 -29.5 -75.5t-74.5 -30.5h-12q-47 0 -78 30.5t-31 75.5zM653 1243v12q0 47 32 78t77 31h12q45 0 75 -30.5t30 -78.5v-12q0 -47 -30 -76.5t-75 -29.5h-12q-47 0 -78 30.5t-31 75.5z" />
<glyph glyph-name="divide" unicode="&#xf7;" horiz-adv-x="1011" d="M367 383v14q0 53 36.5 91t90.5 38h16q51 0 88 -37.5t37 -91.5v-14q0 -55 -36 -91t-89 -36h-16q-53 0 -90 36t-37 91zM367 993v17q0 53 36.5 90t90.5 37h16q53 0 89 -37t36 -90v-17q0 -55 -36 -91t-89 -36h-16q-53 0 -90 36t-37 91zM883 592l-756 -2q-29 0 -44 30.5 t-15 73.5q0 39 14 70t37 31l760 2q14 0 32.5 -42t18.5 -81q0 -76 -47 -82z" />
<glyph glyph-name="oslash" unicode="&#xf8;" horiz-adv-x="1165" d="M809 729l-369 -559q2 0 19 -4q59 -25 100 -25q129 0 225.5 106.5t96.5 264.5q0 117 -72 217zM328 303l334 518q-43 12 -82 13q-125 0 -215.5 -95.5t-90.5 -240.5q1 -113 54 -195zM360 33l-79 -125v2q-14 -25 -45 -25q-35 0 -74 31t-39 57q0 18 8 25q41 66 45 70 q6 12 22.5 33.5t20.5 29.5q-141 152 -141 369q0 231 147.5 375.5t352.5 144.5q90 0 188 -31q25 43 51 78l60 88q8 10 18 10q39 0 83 -25.5t44 -60.5q0 -10 -6 -22l-101 -180q154 -164 154 -361q0 -227 -150.5 -381.5t-351.5 -154.5q-88 0 -207 53z" />
<glyph glyph-name="ugrave" unicode="&#xf9;" horiz-adv-x="1124" d="M817 965l4 8q16 29 99 28q41 0 73.5 -10t32.5 -28l2 -953q-39 -39 -127 -39q-35 0 -55.5 13.5t-23.5 26.5l-3 14v86q-55 -78 -122.5 -118t-174.5 -40q-66 0 -118 11t-110 48t-96 99.5t-63.5 175t-25.5 266.5l4 408q0 41 90 40q39 0 77.5 -13t38.5 -27v-478 q0 -170 53.5 -243.5t182.5 -73.5q61 0 139 42t123 109v648zM586 1114l-344 141q-31 20 -31 54q0 37 46 87t60 44l301 -156q53 -29 54 -74q0 -37 -31.5 -66.5t-54.5 -29.5z" />
<glyph glyph-name="uacute" unicode="&#xfa;" horiz-adv-x="1124" d="M817 965l4 8q16 29 99 28q41 0 73.5 -10t32.5 -28l2 -953q-39 -39 -127 -39q-35 0 -55.5 13.5t-23.5 26.5l-3 14v86q-55 -78 -122.5 -118t-174.5 -40q-66 0 -118 11t-110 48t-96 99.5t-63.5 175t-25.5 266.5l4 408q0 41 90 40q39 0 77.5 -13t38.5 -27v-478 q0 -170 53.5 -243.5t182.5 -73.5q61 0 139 42t123 109v648zM874 1260l-348 -146q-23 0 -54.5 30t-31.5 66q0 45 54 74l301 156q14 6 60 -44t46 -87q0 -24 -27 -49z" />
<glyph glyph-name="ucircumflex" unicode="&#xfb;" horiz-adv-x="1122" d="M817 965l4 8q16 29 99 28q41 0 73.5 -10t32.5 -28l2 -953q-39 -39 -127 -39q-35 0 -55.5 13.5t-23.5 26.5l-3 14v86q-55 -78 -122.5 -118t-174.5 -40q-66 0 -118 11t-110 48t-96 99.5t-63.5 175t-25.5 266.5l4 408q0 41 90 40q39 0 77.5 -13t38.5 -27v-478 q0 -170 53.5 -243.5t182.5 -73.5q61 0 139 42t123 109v648zM580 1444h24l273 -150q14 -12 14 -39q0 -37 -39 -76.5t-55 -35.5l-219 125l-115 -60l-123 -65q-16 -4 -48 37t-32 75q0 31 14 43l269 140q12 6 37 6z" />
<glyph glyph-name="udieresis" unicode="&#xfc;" horiz-adv-x="1107" d="M256 1243v12q0 47 31.5 78t77.5 31h12q45 0 74.5 -30.5t29.5 -78.5v-12q0 -45 -29.5 -75.5t-74.5 -30.5h-12q-47 0 -78 30.5t-31 75.5zM649 1243v12q0 47 32 78t77 31h12q45 0 74.5 -30.5t29.5 -78.5v-12q0 -47 -29.5 -76.5t-74.5 -29.5h-12q-47 0 -78 30.5t-31 75.5z M805 965l4 8q16 29 98 28q41 0 74 -10t33 -28l2 -953q-39 -39 -127 -39q-35 0 -55.5 13.5t-23.5 26.5l-3 14v86q-55 -78 -123 -118t-174 -40q-66 0 -118 11t-110.5 48t-96.5 99.5t-63.5 175t-25.5 266.5l4 408q0 41 90 40q39 0 78 -13t39 -27v-478q0 -170 53.5 -243.5 t182.5 -73.5q61 0 139 42t123 109v648z" />
<glyph glyph-name="yacute" unicode="&#xfd;" horiz-adv-x="1122" d="M152 -528l-2 2q-27 47 -27 86q0 31 29 86q76 0 135 29.5t93 72.5t57.5 101.5t32.5 102.5t13 89l-202 442l-201 441q-8 8 -8 22q0 4 8 15.5t41 25.5t82 14q31 0 53.5 -12t29.5 -24l7 -13q4 -8 12 -28.5t12 -28.5l277 -608q25 55 37 92l225 600q4 29 49 29q41 0 90 -26 t49 -52q0 -10 -2 -17q-154 -399 -270 -737q-102 -291 -197 -493q-100 -213 -368 -213zM854 1260l-348 -146q-23 0 -54.5 30t-31.5 66q0 45 53 74l301 156q14 6 60.5 -44t46.5 -87q0 -24 -27 -49z" />
<glyph glyph-name="thorn" unicode="&#xfe;" horiz-adv-x="1052" d="M236 1419q72 0 77 -47l2 -477q137 119 287 119q160 0 268.5 -129t108.5 -324q0 -276 -147.5 -427.5t-378.5 -151.5q-78 0 -136 34q0 -31 -1 -91t-1 -89v-201q0 -27 -29.5 -43t-68.5 -16t-66.5 13.5t-27.5 37.5l-2 1741q0 14 39 32.5t76 18.5zM322 707l-5 -449 q72 -84 201 -84q102 0 179 91t77 233q0 145 -53 229t-150 84q-57 0 -119.5 -26.5t-96.5 -52.5z" />
<glyph glyph-name="ydieresis" unicode="&#xff;" horiz-adv-x="1079" d="M117 -528l-2 2q-27 47 -27 86q0 31 29 86q76 0 135 29.5t93 72.5t57.5 101.5t32.5 102.5t14 89l-203 442l-201 441q-8 8 -8 22q0 4 8 15.5t41 25.5t82 14q31 0 53.5 -12t29.5 -24l7 -13q4 -8 12.5 -28.5t12.5 -28.5l276 -608q25 55 37 92l225 600q4 29 49 29 q41 0 90.5 -26t49.5 -52q0 -10 -2 -17q-154 -399 -271 -737q-102 -291 -196 -493q-100 -213 -369 -213zM272 1243v12q0 47 32 78t77 31h12q45 0 75 -30.5t30 -78.5v-12q0 -45 -30 -75.5t-75 -30.5h-12q-47 0 -78 30.5t-31 75.5zM625 1243v12q0 47 31.5 78t76.5 31h12 q45 0 75 -30.5t30 -78.5v-12q0 -47 -29.5 -76.5t-75.5 -29.5h-12q-47 0 -77.5 30.5t-30.5 75.5z" />
<glyph glyph-name="OE" unicode="&#x152;" horiz-adv-x="2091" d="M1311 997v-127h422q66 0 65 -90q0 -41 -17.5 -75.5t-41.5 -34.5l-428 -2v-326q0 -168 440 -168l201 10q59 0 59 -90q0 -39 -15.5 -73.5t-37.5 -34.5q-29 0 -53 -2q-82 -4 -166 -4q-119 0 -229.5 18t-218 71.5t-154.5 135.5q-170 -221 -424 -221q-246 0 -419 216t-173 525 q0 307 173 523t419 216q131 0 247.5 -69.5t200.5 -188.5q35 61 91.5 108.5t130 74t136 44t147.5 23.5t127 7t110 1q45 0 66.5 -24.5t21.5 -93.5q0 -66 -33 -66h-47q-4 0 -12.5 1t-12.5 1q-90 0 -174 -9t-183 -32.5t-159.5 -80t-60.5 -136.5q0 -17 2 -27zM324 760 q-4 -45 -5 -66q0 -209 106.5 -356.5t262.5 -147.5q168 0 292 165t124 399q0 211 -106.5 362.5t-262 151.5t-274.5 -147.5t-137 -360.5z" />
<glyph glyph-name="oe" unicode="&#x153;" horiz-adv-x="1845" d="M1468 465h-356q8 -160 105.5 -244t224.5 -84q125 0 205 49l12 2q31 0 55.5 -47t24.5 -86q0 -55 -114 -77.5t-239 -22.5q-113 0 -215 57.5t-172 149.5q-72 -94 -178 -151.5t-223 -57.5q-215 0 -357.5 149.5t-142.5 411.5q0 219 145.5 362.5t356.5 143.5q117 0 221.5 -49 t173.5 -135q68 92 171.5 145t222.5 53q377 0 376 -354q0 -66 -30.5 -112t-80.5 -66.5t-94.5 -28.5t-91.5 -8zM301 508q0 -162 80 -264.5t213 -102.5q145 0 225 101.5t82 265.5q0 150 -90 238t-217 88q-121 0 -207 -95.5t-86 -230.5zM1112 635h358q102 0 103 100 q0 117 -209 117q-80 0 -157 -68.5t-95 -148.5z" />
<glyph glyph-name="Ydieresis" unicode="&#x178;" horiz-adv-x="1286" d="M485 -4v657l-209 342l-213 351q-6 16 50.5 64t93.5 48q23 0 39 -20l344 -578l235 281l248 293q16 16 35 16q35 0 83 -61.5t44 -79.5l-545 -645v-674q-72 -14 -119 -14t-86 20zM319 1677v13q0 47 31 77.5t78 30.5h12q45 0 75 -30.5t30 -77.5v-13q0 -45 -30 -75.5 t-75 -30.5h-12q-47 0 -78 30.5t-31 75.5zM672 1677v13q0 47 30.5 77.5t77.5 30.5h13q45 0 74.5 -30.5t29.5 -77.5v-13q0 -47 -29.5 -76.5t-74.5 -29.5h-13q-47 0 -77.5 30.5t-30.5 75.5z" />
<glyph glyph-name="circumflex" unicode="&#x2c6;" horiz-adv-x="868" d="M459 1444h24l273 -150q14 -12 14 -39q0 -37 -39 -76.5t-55 -35.5l-219 125l-115 -60l-123 -65q-16 -4 -48 37t-32 75q0 31 15 43l268 140q12 6 37 6z" />
<glyph glyph-name="tilde" unicode="&#x2dc;" horiz-adv-x="808" d="M735 1237h-2q-82 -109 -196 -109q-45 0 -152 50q-90 41 -111 41q-25 0 -45 -10.5t-28 -20.5l-8 -10q-25 -12 -29 -13q-31 0 -64.5 49.5t-33.5 83.5q0 23 26 50v-7q57 47 129 48q96 0 217 -78q33 -18 56 -19q57 0 110 78v-2q12 25 27 25q29 0 70.5 -47.5t41.5 -79.5 q0 -21 -8 -29z" />
<glyph glyph-name="endash" unicode="&#x2013;" horiz-adv-x="1001" d="M864 592l-755 -2q-29 0 -44.5 30.5t-15.5 73.5q0 39 14.5 70t36.5 31l760 2q14 0 32.5 -42t18.5 -81q0 -76 -47 -82z" />
<glyph glyph-name="emdash" unicode="&#x2014;" horiz-adv-x="1236" d="M1110 592l-1001 -2q-29 0 -44.5 30.5t-15.5 73.5q0 39 14.5 70t36.5 31l1006 2q14 0 32.5 -42t18.5 -81q0 -76 -47 -82z" />
<glyph glyph-name="quoteleft" unicode="&#x2018;" horiz-adv-x="643" d="M406 1317v-17q0 -49 -28 -84.5t-73 -46.5q31 -98 109 -118q2 -2 9 -4.5t9 -4.5v2q31 -11 35 -25q2 -6 2 -15v-72q-94 0 -163.5 31.5t-103.5 73.5t-53.5 101.5t-22.5 93.5t-3 71q0 63 35 106t96 43h16q57 0 96.5 -39t39.5 -96z" />
<glyph glyph-name="quoteright" unicode="&#x2019;" horiz-adv-x="630" d="M195 1300v17q0 57 38.5 96t96.5 39h16q55 0 93 -39t38 -96q0 -344 -278 -381q-31 -4 -64 -4q-6 18 -6 38.5v31t3 22.5t8 16t16 4q14 0 36.5 8.5t55.5 39t49 77.5q-45 10 -73.5 47t-28.5 84z" />
<glyph glyph-name="quotesinglbase" unicode="&#x201a;" horiz-adv-x="344" d="M84 84v12q0 47 31.5 78t77.5 31h12q53 0 81.5 -39t28.5 -107q0 -39 -2 -59q-8 -76 -88 -154.5t-190 -78.5q-10 20 -10 30l2 56q6 0 29.5 10t52 43t32.5 78q-57 28 -57 100z" />
<glyph glyph-name="quotedblleft" unicode="&#x201c;" horiz-adv-x="714" d="M655 1167v-16q0 -57 -38.5 -96t-96.5 -39h-16q-55 0 -93 39t-38 96q0 385 346 385v-72q0 -29 -31 -39q-4 -2 -6 -2v2q-2 0 -10 -4t-10 -4q-76 -25 -107 -119q45 -10 72.5 -46t27.5 -85zM332 1167v-16q0 -57 -39 -96t-96 -39h-17q-55 0 -93 39t-38 96q0 385 346 385v-72 q0 -29 -31 -39q-4 -2 -6 -2v2q-2 0 -10 -4t-10 -4q-76 -25 -107 -119q45 -10 73 -46t28 -85z" />
<glyph glyph-name="quotedblright" unicode="&#x201d;" horiz-adv-x="749" d="M94 1384v17q0 57 39 96t96 39h17q55 0 93 -39t38 -96q0 -344 -278 -381q-31 -4 -64 -4q-6 18 -6 39v32t3 21t8 16t15 4q14 0 37 8.5t55.5 39t49.5 77.5q-45 10 -74 47t-29 84zM418 1384v17q0 57 39 96t96 39h16q55 0 93 -39t38 -96q0 -344 -277 -381q-31 -4 -65 -4 q-6 18 -6 39v32t3 21t8.5 16t15.5 4q14 0 36.5 8.5t55.5 39t49 77.5q-45 10 -73.5 47t-28.5 84z" />
<glyph glyph-name="quotedblbase" unicode="&#x201e;" horiz-adv-x="710" d="M119 84v12q0 47 30.5 78t77.5 31h13q53 0 81.5 -39t28.5 -107q0 -39 -2 -59q-8 -76 -88 -154.5t-190 -78.5q-10 20 -11 30l2 56q6 0 30 10t52.5 43t32.5 78q-57 28 -57 100zM391 84v12q0 47 32 78t77 31h12q53 0 82 -39t29 -107q0 -39 -2 -59q-8 -76 -88 -154.5 t-191 -78.5q-10 20 -10 30l2 56q6 0 29.5 10t52 43t33.5 78q-58 28 -58 100z" />
<glyph glyph-name="bullet" unicode="&#x2022;" horiz-adv-x="598" d="M96 698v25q0 82 56.5 137t138.5 55h24q78 0 133.5 -55t55.5 -137v-25q0 -84 -54.5 -139t-134.5 -55h-24q-84 0 -139.5 54t-55.5 140z" />
<glyph glyph-name="ellipsis" unicode="&#x2026;" horiz-adv-x="1916" d="M236 109v16q0 57 38.5 96t96.5 39h16q55 0 93 -39t38 -96v-16q0 -57 -38 -95.5t-93 -38.5h-16q-57 0 -96 38.5t-39 95.5zM803 109v16q0 57 39 96t96 39h16q55 0 93 -39t38 -96v-16q0 -57 -37.5 -95.5t-93.5 -38.5h-16q-57 0 -96 38.5t-39 95.5zM1364 109v16q0 57 39 96 t96 39h17q55 0 93 -39t38 -96v-16q0 -57 -38 -95.5t-93 -38.5h-17q-57 0 -96 38.5t-39 95.5z" />
<glyph glyph-name="guilsinglleft" unicode="&#x2039;" horiz-adv-x="720" d="M145 475h2q-8 10 -8 39q0 20 4 33l295 387q16 23 47 22q39 0 79 -35.5t36 -56.5l-281 -350q16 -18 46 -56t47 -57l182 -223q4 -16 -37 -57t-78 -41q-29 0 -45 22z" />
<glyph glyph-name="guilsinglright" unicode="&#x203a;" horiz-adv-x="604" d="M532 465l-282 -363q-16 -23 -47 -22q-37 0 -77 41t-36 57l277 336l-140 170q-94 115 -143 180q-4 18 36 55t77 37q33 0 49 -22l295 -387q2 -6 2 -33q-1 -29 -11 -49z" />
<glyph glyph-name="Euro" unicode="&#x20ac;" horiz-adv-x="1419" d="M281 795l-134 -2q-27 0 -43 26.5t-16 61.5q0 37 13.5 62.5t37.5 25.5l160 2q43 252 166 380t305 128q109 0 230.5 -36t189.5 -72l67 -36l-6 -176l-77 31.5t-178 52.5t-238 33q-86 0 -152.5 -81t-97.5 -224h459q4 0 13 -15.5t16.5 -40t7.5 -45.5q0 -49 -29 -75l-492 -7 q-2 -27 -2 -86v-51h502q20 -57 21 -106q0 -43 -29 -70h-475q59 -317 258 -317q104 0 194 11t142.5 25.5t90.5 30t52 26.5l14 11v-186q-4 -4 -14 -12.5t-50 -30t-89 -36.5t-137.5 -28.5t-190.5 -13.5q-414 0 -479 520q-12 0 -35 -1t-33 -1h-76q-27 0 -43 26.5t-16 61.5 q0 37 13.5 62.5t37.5 25.5l140 2v72q0 6 1 16.5t1 16.5v39z" />
<glyph glyph-name="trademark" unicode="&#x2122;" horiz-adv-x="1042" d="M563 977l-53 10v428q0 41 59 41q43 0 52 -31l-3 2l64 -114l55 -101l56 103v-2l63 117q14 27 53 26q29 0 52 -22v-441q-16 -16 -62 -16q-14 0 -51 12v213l-82 -145q-4 -4 -37 -4q-35 0 -41 26l2 -2l-23.5 37t-17.5 29q-4 6 -22 41v-191q0 -2 -8.5 -6t-24 -7t-31.5 -3z M96 1364l-2 8q-4 6 -4 19q0 29 16 55l9 4q14 2 164 2q141 0 159 -2h27l2 -25q2 -8 2 -34l-8 -50h-127v-323q0 -39 -53 -39q-59 0 -60 39v323h-92q-15 0 -33 23z" />
</font>
</defs>
</svg>
